<svg width="47" height="40" viewBox="0 0 47 40" fill="none" xmlns="http://www.w3.org/2000/svg">
<path d="M7.10011 2.6415C-5.62699 6.66059 11.26 26.132 15.9297 30.8018C17.8526 32.8346 21.485 38.1601 24.4323 37.9963C25.7986 37.9204 27.0912 35.6282 27.9933 34.7261C30.5548 32.1645 32.9496 29.479 35.5148 26.9139C40.4038 22.0249 46.3995 18.1394 44.7078 10.5264C43.0359 3.00322 35.8432 2.91416 29.81 5.14868C27.2698 6.08951 25.6799 8.55842 24.723 11.0351C24.6327 11.2688 23.9491 14.4854 23.8146 14.0146C23.3914 12.5333 23.2055 11.3043 22.4702 9.87234C18.6998 2.53003 14.4258 0.328114 7.10011 2.6415Z" fill="#E67777" stroke="black" stroke-width="3" stroke-linecap="round"/>
</svg>
