<svg width="38" height="40" viewBox="0 0 38 40" fill="none" xmlns="http://www.w3.org/2000/svg">
<path d="M2.13284 20.3997C1.50348 15.3649 2.09655 8.48922 2.09655 3.35818C8.02689 3.35818 13.973 3.48431 19.9011 3.35818C24.0677 3.26953 28.0686 2.05009 32.328 2.05009C35.1219 2.05009 34.7988 2.68388 34.7988 5.32032C34.7988 10.4771 37.2194 15.9862 35.9616 21.0174C35.369 23.3876 34.3458 26.4031 32.6913 27.9939C30.5804 30.0237 29.4785 29.7534 26.9866 31.1551C24.6668 32.46 22.6743 33.0242 20.7005 34.7161C20.0665 35.2594 19.3678 35.2834 18.9564 36.0605C18.8007 36.3545 18.3989 37.9499 18.1206 37.9499C17.5592 37.9499 17.827 36.0545 17.6483 35.6971C17.2348 34.8703 16.0909 34.0181 15.5408 33.1536C14.6495 31.753 13.7327 30.1741 11.9072 30.1741C10.2494 30.1741 8.16379 28.2842 6.63849 27.5215C3.98729 26.1959 2.48676 23.2311 2.13284 20.3997Z" fill="#9395CF" stroke="black" stroke-width="3" stroke-linecap="round"/>
</svg>
