<svg width="92" height="137" viewBox="0 0 92 137" fill="none" xmlns="http://www.w3.org/2000/svg">
<g filter="url(#filter0_i_27_3134)">
<path d="M14.4926 134.431C25.2304 134.431 35.7803 135.266 46.5162 135.266C49.4772 135.266 60.7406 135.266 64.363 135.544C66.2935 135.573 68.1751 135.822 70.1195 135.822C74.7727 135.822 80.43 136.696 84.7255 134.57C86.5516 133.667 88.7741 131.433 89.9345 129.702C91.0003 128.111 91.0002 126.645 91 124.764V124.694C91 122.172 90.504 119.74 90.4672 117.244C90.003 114.85 88.2214 89.5879 88.5879 79.2529C88.9175 69.9561 90.4672 60.8366 90.4672 51.5092C90.4672 47.9427 89.9345 44.4506 89.9345 40.8599V40.8454C89.9345 37.851 89.9345 34.747 89.6089 31.7717C89.0436 26.6047 89.4101 18.9205 87.6899 13.5306C86.4482 9.63982 85.5603 8.60948 83.5416 5.06354C81.4603 1.40755 76.5245 1.47361 73.0348 1.44681C61.5381 1.35851 50.0344 1.72502 38.5251 1.72502C28.8546 1.72502 17.9999 -0.985188 9.0764 4.07435C4.82379 6.48552 2.50702 11.6968 1.51444 16.362C0.553658 20.8777 1.23328 26.1669 1.23328 30.798C1.23328 39.0091 1.49965 47.1909 1.49965 55.4041C1.49965 73.0807 0.720256 91.0767 2.57992 108.558C2.73437 110.01 3.23962 111.452 3.34944 112.885C3.34944 117.244 5.70011 125.7 5.76157 126.92C7.41536 132.108 12.6382 134.431 14.4926 134.431Z" fill="#F8F8F8"/>
</g>
<path d="M14.4926 134.431C25.2304 134.431 35.7803 135.266 46.5162 135.266C49.4772 135.266 60.7406 135.266 64.363 135.544C66.2935 135.573 68.1751 135.822 70.1195 135.822C74.7727 135.822 80.43 136.696 84.7255 134.57C86.5516 133.667 88.7741 131.433 89.9345 129.702C91.0003 128.111 91.0002 126.645 91 124.764V124.694C91 122.172 90.504 119.74 90.4672 117.244C90.003 114.85 88.2214 89.5879 88.5879 79.2529C88.9175 69.9561 90.4672 60.8366 90.4672 51.5092C90.4672 47.9427 89.9345 44.4506 89.9345 40.8599V40.8454C89.9345 37.851 89.9345 34.747 89.6089 31.7717C89.0436 26.6047 89.4101 18.9205 87.6899 13.5306C86.4482 9.63982 85.5603 8.60948 83.5416 5.06354C81.4603 1.40755 76.5245 1.47361 73.0348 1.44681C61.5381 1.35851 50.0344 1.72502 38.5251 1.72502C28.8546 1.72502 17.9999 -0.985188 9.0764 4.07435C4.82379 6.48552 2.50702 11.6968 1.51444 16.362C0.553658 20.8777 1.23328 26.1669 1.23328 30.798C1.23328 39.0091 1.49965 47.1909 1.49965 55.4041C1.49965 73.0807 0.720256 91.0767 2.57992 108.558C2.73437 110.01 3.23962 111.452 3.34944 112.885C3.34944 117.244 5.70011 125.7 5.76157 126.92C7.41536 132.108 12.6382 134.431 14.4926 134.431Z" stroke="black" stroke-opacity="0.5" stroke-width="0.5" stroke-linecap="round"/>
<path d="M47.6407 73.2089C45.8563 73.2089 44.57 72.3646 43.0521 71.4553C41.8005 70.7056 40.4964 69.7919 40.1544 68.2611C39.691 66.1877 40.3143 64.1612 42.0765 62.9933C44.535 61.3639 47.7731 61.6286 50.0543 63.5172C51.0402 64.3334 51.5069 65.6345 51.738 66.8496C52.0494 68.4872 51.8446 69.4646 50.6324 70.6622C46.7072 74.5399 41.9331 70.1274 39.3161 66.9951C36.3453 63.4394 39.9024 59.4711 43.5362 58.4385C47.9468 57.1852 53.0529 57.6464 56.1676 61.3052C57.2502 62.577 58.1876 63.8836 58.2921 65.6199C58.4514 68.2653 57.3008 70.5821 55.8786 72.7432C54.3974 74.9938 51.2726 76.7411 48.6668 77.2398C47.0913 77.5414 45.4662 77.5483 43.8686 77.5236C42.1486 77.4969 40.4027 77.4334 38.7886 76.7741C36.2848 75.7514 33.5557 73.9941 31.8298 71.8701C31.0021 70.8515 30.4287 69.6572 29.8209 68.5013C29.0822 67.0964 28.3992 65.7829 28.2167 64.1793C27.7971 60.4921 28.1766 56.0415 31.2589 53.5199C32.6766 52.3601 34.714 51.9642 36.4545 51.6281C38.4276 51.2471 40.3991 50.8579 42.3656 50.4494C44.0321 50.1031 45.7003 50.0274 47.395 50.0274C49.5004 50.0274 51.2665 50.6456 53.2049 51.4389C56.9278 52.9625 60.5499 54.9463 63.5095 57.7254C64.1424 58.3198 64.4801 58.9417 64.8174 59.7409C65.2738 60.8222 65.8574 61.8711 66.2265 62.986C66.7739 64.6396 66.9987 66.5218 67.0214 68.2611C67.051 70.5311 66.9926 72.6772 66.4433 74.8896C65.8571 77.2505 64.7127 79.2542 63.2565 81.1834C60.2902 85.1135 54.6835 85.4535 50.2421 86.2403C47.7124 86.6884 45.1029 86.6987 42.539 86.6987C40.2341 86.6987 38.5718 86.3338 36.6063 85.0616C33.263 82.8975 30.326 80.2453 27.4941 77.4508C26.7335 76.7004 26.1906 75.7136 25.5863 74.8387C24.8349 73.7506 24.0855 72.6672 23.4474 71.5063C22.4402 69.6739 21.7802 67.6991 21.4385 65.6345C21.089 63.5231 21.1061 61.4695 21.1061 59.3334C21.1061 58.4131 21.2892 57.5663 21.5975 56.7068C21.9136 55.8254 22.0813 54.7792 22.5441 53.9637C23.5797 52.1389 24.4328 50.3044 25.6514 48.5867C26.7922 46.9785 28.5105 45.859 30.0377 44.6576C30.4684 44.3188 30.997 44.1666 31.4468 43.8573C32.0274 43.458 32.5599 43.1046 33.21 42.8241C34.2083 42.3933 35.3261 42.0422 36.3823 41.7763C38.3188 41.2888 40.2603 41.1215 42.25 41.1215C43.2448 41.1215 44.2396 41.1215 45.2344 41.1215C46.4086 41.1215 47.5111 41.4807 48.6813 41.5144C50.0226 41.553 51.529 41.7962 52.8363 42.111C54.1852 42.4358 55.6319 42.7156 56.9264 43.2242C58.6953 43.9193 60.3729 44.8983 62.1292 45.6399C62.8391 45.9396 63.6881 46.2997 64.2899 46.7822C64.9275 47.2935 65.7013 47.7239 66.2915 48.2665C66.8409 48.7716 67.4467 49.3598 67.9319 49.9255C68.5199 50.611 68.7996 51.2382 69.1676 52.0646C69.5127 52.8398 69.8176 53.8906 70.4032 54.4803" stroke="#002A7D" stroke-opacity="0.01" stroke-width="3" stroke-linecap="round"/>
<path d="M42.2334 73.5696C42.0267 74.2609 40.5755 73.6104 40.2179 73.4111C39.4191 72.9658 38.9345 72.1192 38.4336 71.365C37.6236 70.1455 36.7583 68.9396 36.1003 67.6202C35.1236 65.6621 35.13 63.3902 35.2406 61.2329C35.2929 60.213 35.3865 59.0565 35.9919 58.2129" stroke="#D1E1FF" stroke-opacity="0.1" stroke-width="10" stroke-linecap="round"/>
<path d="M42.2334 51.8306C43.027 51.6704 43.7049 51.2976 44.5338 51.2216C46.2251 51.0664 48.0588 51.0251 49.7454 51.2368C51.2392 51.4243 52.2478 51.8831 53.5014 52.5157" stroke="#D1E1FF" stroke-opacity="0.1" stroke-width="10" stroke-linecap="round"/>
<path d="M56.3182 71.0315C56.3182 72.4651 54.6639 73.9716 53.6072 74.8183C51.9249 76.1661 49.9458 77.4257 47.8672 78.1529" stroke="#D1E1FF" stroke-opacity="0.1" stroke-width="10" stroke-linecap="round"/>
<path d="M63.9621 62.4857C64.9554 64.9602 65.3169 67.4558 63.3608 69.6072" stroke="#D1E1FF" stroke-opacity="0.1" stroke-width="10" stroke-linecap="round"/>
<path d="M36.5993 55.3643C31.1311 58.4153 30.7619 63.7448 31.0272 68.7262C31.2129 72.2119 31.9936 75.9951 33.8717 79.1536C34.569 80.3263 35.6413 81.2953 36.424 82.4257" stroke="#1E59CC" stroke-opacity="0.02" stroke-width="5" stroke-linecap="round"/>
<path d="M39.8317 59.6372C39.7307 60.9438 39.4104 62.1827 39.4161 63.5113C39.4269 66.0422 40.0511 68.6665 41.3941 70.739C42.7676 72.8586 45.442 75.0355 47.867 75.3044" stroke="#1E59CC" stroke-opacity="0.02" stroke-width="5" stroke-linecap="round"/>
<path d="M43.6415 59.8984C43.0751 59.4677 41.3023 59.6188 40.6837 59.996C39.2498 60.8706 39.403 62.294 39.4384 63.8698C39.4983 66.5424 41.1094 69.0489 42.6608 71.0315" stroke="#1E59CC" stroke-opacity="0.03" stroke-width="5" stroke-linecap="round"/>
<path d="M47.8672 58.2201C49.2286 58.2201 50.4604 58.0568 51.3102 59.2865C51.9671 60.2371 52.0927 61.3759 52.0927 62.4858" stroke="#1E59CC" stroke-opacity="0.03" stroke-width="5" stroke-linecap="round"/>
<path d="M51.9612 69.6072C52.0748 70.8226 52.5255 71.8925 50.6841 72.4558" stroke="#1E59CC" stroke-opacity="0.03" stroke-width="5" stroke-linecap="round"/>
<path d="M36.5994 59.6372C34.9326 61.5164 34.93 64.2889 35.6405 66.7586" stroke="#1E59CC" stroke-opacity="0.03" stroke-width="5" stroke-linecap="round"/>
<path d="M40.8247 73.88C41.7098 74.4603 42.7044 75.146 43.8314 75.146C44.7305 75.146 45.5804 75.1563 46.4587 75.3043" stroke="#1E59CC" stroke-opacity="0.03" stroke-width="5" stroke-linecap="round"/>
<path d="M33.7824 52.5157C31.5964 54.1736 29.8015 56.1257 28.1484 58.2129" stroke="#1E59CC" stroke-opacity="0.03" stroke-width="3" stroke-linecap="round"/>
<path d="M30.9653 72.4558C30.9653 73.7261 31.432 74.2654 32.3738 75.3044" stroke="#1E59CC" stroke-opacity="0.03" stroke-width="3" stroke-linecap="round"/>
<path d="M43.6416 43.97C45.1516 43.97 47.6396 43.97 49.2756 43.97" stroke="#1E59CC" stroke-opacity="0.03" stroke-width="3" stroke-linecap="round"/>
<path d="M64.769 58.2129C64.8725 58.4345 65.224 58.6459 65.4733 58.8506C65.809 59.1261 65.755 59.3733 66.1775 59.6372" stroke="#1E59CC" stroke-opacity="0.03" stroke-width="3" stroke-linecap="round"/>
<path d="M63.3608 75.3043C63.3608 75.802 63.3608 76.2136 63.3608 76.7286" stroke="#1E59CC" stroke-opacity="0.03" stroke-width="3" stroke-linecap="round"/>
<path d="M54.9098 83.8501C54.34 83.8501 53.7733 83.8501 53.2013 83.8501C52.8234 83.8501 52.4651 83.8501 52.0928 83.8501" stroke="#1E59CC" stroke-opacity="0.03" stroke-width="3" stroke-linecap="round"/>
<path d="M33.7822 49.6671C34.4092 47.8464 35.3241 46.8103 37.1209 45.7879C38.1318 45.2126 39.5691 43.97 40.8247 43.97" stroke="#7389B3" stroke-opacity="0.03" stroke-width="2" stroke-linecap="round"/>
<path d="M36.599 43.97C33.5971 45.4734 30.0457 46.6788 27.4071 48.8412C26.5767 49.5218 26.0568 50.3365 25.3311 51.0914" stroke="#7389B3" stroke-opacity="0.03" stroke-width="2" stroke-linecap="round"/>
<path d="M26.7395 59.6372C26.6697 62.4925 24.3685 65.3433 25.7983 68.1829" stroke="#7389B3" stroke-opacity="0.03" stroke-width="2" stroke-linecap="round"/>
<path d="M29.5566 73.88C29.5566 77.9016 32.6299 79.1208 35.1906 81.0014" stroke="#7389B3" stroke-opacity="0.03" stroke-width="2" stroke-linecap="round"/>
<path d="M43.6416 82.4258C47.2238 82.4258 50.2358 81.8517 53.5011 81.0015" stroke="#7389B3" stroke-opacity="0.03" stroke-width="2" stroke-linecap="round"/>
<path d="M61.5885 62.4857C61.68 61.4412 62.1473 60.3201 61.8594 59.2765C61.6133 58.3846 61.1067 57.5843 60.5435 56.7886" stroke="#7389B3" stroke-opacity="0.03" stroke-width="2" stroke-linecap="round"/>
<path d="M50.6841 49.6672C49.6286 48.9082 48.4416 48.8556 47.2816 48.621C46.0441 48.3707 44.8998 48.2429 43.6416 48.2429" stroke="#7389B3" stroke-opacity="0.03" stroke-width="2" stroke-linecap="round"/>
<path d="M33.7823 53.9401C33.1512 54.3462 32.507 54.764 31.9794 55.3074C31.5519 55.7477 31.3299 56.3278 30.9653 56.7886" stroke="#7389B3" stroke-opacity="0.03" stroke-width="2" stroke-linecap="round"/>
<path d="M29.5566 66.7587C29.7045 68.1419 29.9497 70.0047 30.9651 71.0315" stroke="#7389B3" stroke-opacity="0.03" stroke-width="2" stroke-linecap="round"/>
<path d="M39.4162 55.3643C36.1468 55.3643 33.7822 59.2542 33.7822 62.4857" stroke="#EDF3FF" stroke-opacity="0.25" stroke-width="2" stroke-linecap="round"/>
<path d="M33.7824 54.0431C33.6926 53.6794 32.7747 54.3903 32.6731 54.4553C31.2448 55.3683 30.0697 56.5658 29.2045 58.037C28.4896 59.2527 27.7962 61.0896 28.3479 62.4858" stroke="white" stroke-opacity="0.25" stroke-width="2" stroke-linecap="round"/>
<path d="M28.1484 69.6072C28.3126 70.7873 29.3641 72.0767 30.0182 73.0306C31.0799 74.5791 32.2347 75.6666 33.7824 76.7286" stroke="white" stroke-opacity="0.25" stroke-width="2" stroke-linecap="round"/>
<path d="M36.5991 55.3643C37.6509 53.6828 38.8931 51.9405 40.8324 50.9813C42.1976 50.3061 43.5067 49.861 45.0501 49.6671" stroke="white" stroke-opacity="0.25" stroke-width="2" stroke-linecap="round"/>
<path d="M52.0928 55.3643C54.6623 56.1791 57.054 57.8654 59.1352 59.6371" stroke="white" stroke-opacity="0.25" stroke-width="2" stroke-linecap="round"/>
<path d="M56.1657 66.7587C56.1657 68.483 56.6481 70.7212 55.8957 72.3695C55.4106 73.4323 54.2968 74.384 53.501 75.3044" stroke="white" stroke-opacity="0.25" stroke-width="2" stroke-linecap="round"/>
<path d="M56.3184 46.8186C57.7498 47.078 59.2112 47.9616 60.3509 49.0254C61.0022 49.6332 61.396 50.4195 61.9523 51.0915" stroke="white" stroke-opacity="0.25" stroke-width="2" stroke-linecap="round"/>
<path d="M64.769 56.7886C66.8249 57.9121 66.0239 59.7604 66.0239 61.0614" stroke="white" stroke-opacity="0.25" stroke-width="2" stroke-linecap="round"/>
<path d="M38.0075 42.5458C36.943 42.5458 35.953 42.682 34.9212 43.0733C33.8698 43.4721 33.1824 44.3894 32.3735 45.3944" stroke="white" stroke-opacity="0.25" stroke-width="2" stroke-linecap="round"/>
<path d="M26.7395 55.3643C25.6001 56.5085 25.3311 58.3195 25.3311 59.6371" stroke="white" stroke-opacity="0.25" stroke-width="2" stroke-linecap="round"/>
<path d="M25.3311 66.7587C25.3911 68.3992 25.668 69.7545 26.7395 71.0315" stroke="white" stroke-opacity="0.25" stroke-width="2" stroke-linecap="round"/>
<path d="M28.1484 75.3043C29.0603 76.2231 29.582 77.7332 30.9654 78.1529" stroke="white" stroke-opacity="0.25" stroke-width="2" stroke-linecap="round"/>
<path d="M33.7822 81.0015C34.9015 82.0579 36.3226 82.4258 38.0077 82.4258" stroke="white" stroke-opacity="0.25" stroke-width="2" stroke-linecap="round"/>
<path d="M42.2334 82.4258C43.6613 82.4258 45.0245 82.4258 46.4589 82.4258" stroke="white" stroke-opacity="0.25" stroke-width="2" stroke-linecap="round"/>
<path d="M49.2759 82.4258C50.2041 81.7858 51.354 82.2117 52.2494 81.6081C52.6822 81.3163 53.0316 81.1202 53.5014 81.0015" stroke="white" stroke-opacity="0.25" stroke-width="2" stroke-linecap="round"/>
<path d="M57.7266 78.1529C58.202 77.6783 58.7177 77.2444 59.1351 76.7286" stroke="white" stroke-opacity="0.25" stroke-width="2" stroke-linecap="round"/>
<path d="M60.5435 72.4557C61.218 71.0855 61.8408 69.7005 61.952 68.1829" stroke="white" stroke-opacity="0.25" stroke-width="2" stroke-linecap="round"/>
<path d="M52.0929 58.2129C51.593 58.2129 51.0983 58.2129 50.5905 58.2129C50.1441 58.2129 49.6759 58.2129 49.2759 58.2129" stroke="white" stroke-opacity="0.25" stroke-width="2" stroke-linecap="round"/>
<path d="M42.2333 56.7886C40.6815 57.0479 39.4621 57.6053 38.0078 58.2129" stroke="white" stroke-opacity="0.25" stroke-width="2" stroke-linecap="round"/>
<path d="M46.4587 49.6793C45.2663 49.6793 44.0699 49.6519 42.878 49.6793C40.9809 49.7228 39.3255 50.482 37.7023 51.277C36.1342 52.045 34.8103 52.6852 33.7822 53.94" stroke="#F52F82" stroke-opacity="0.04" stroke-width="2" stroke-linecap="round"/>
<path d="M31.8823 62.4857C31.0124 64.6447 30.7595 67.3604 31.1319 69.6155C31.4612 71.6094 32.5192 73.7955 33.5838 75.5375C34.6367 77.2604 36.3446 78.4432 38.0078 79.5772" stroke="#F52F82" stroke-opacity="0.04" stroke-width="2" stroke-linecap="round"/>
<path d="M53.501 53.9401C54.8501 53.9401 55.6721 54.7096 56.538 55.4435C57.0864 55.9083 57.5654 56.168 57.7265 56.7886" stroke="#F52F82" stroke-opacity="0.04" stroke-width="2" stroke-linecap="round"/>
<path d="M57.7267 69.6072C57.5548 70.3895 56.5099 71.1624 55.8264 71.6215C54.6277 72.4267 53.3112 73.0973 52.0928 73.88" stroke="#F52F82" stroke-opacity="0.04" stroke-width="2" stroke-linecap="round"/>
<path d="M63.3608 61.0615C64.4023 61.0615 64.5688 61.5201 64.5933 62.4393C64.6317 63.8826 64.7693 65.3115 64.7693 66.7587" stroke="#F52F82" stroke-opacity="0.04" stroke-width="2" stroke-linecap="round"/>
<path d="M36.5994 55.3643C36.5268 56.3497 35.993 56.7912 35.6291 57.539C35.3232 58.1676 35.2333 58.8914 35.1909 59.6371" stroke="#F52F82" stroke-opacity="0.04" stroke-width="2" stroke-linecap="round"/>
<path d="M45.0503 51.0914H47.8673" stroke="#F52F82" stroke-opacity="0.04" stroke-width="2" stroke-linecap="round"/>
<path d="M50.6842 68.9004C49.0205 69.9291 46.629 69.5486 44.8063 69.4912C44.1044 69.4691 43.7543 68.8195 43.3296 68.2768C42.684 67.4517 42.0704 66.819 41.5923 65.8314C40.3563 63.2782 40.527 58.6667 42.736 56.7886" stroke="#D92973" stroke-opacity="0.03" stroke-width="3" stroke-linecap="round"/>
<path d="M36.6105 63.91C36.6105 65.6493 36.4233 67.1629 37.5684 68.6011C38.8011 70.1493 40.3586 70.7589 42.2331 71.0315" stroke="#D92973" stroke-opacity="0.03" stroke-width="3" stroke-linecap="round"/>
<path d="M45.0503 52.8108C45.4855 51.4882 51.4387 55.0203 52.0928 55.3643" stroke="#D92973" stroke-opacity="0.03" stroke-width="3" stroke-linecap="round"/>
<path d="M54.8701 62.4857C54.8701 63.4305 54.9737 64.5081 54.8447 65.4451C54.7069 66.4462 54.0209 67.441 53.501 68.1829" stroke="#D92973" stroke-opacity="0.03" stroke-width="3" stroke-linecap="round"/>
<path d="M52.0925 73.88C50.4611 73.88 48.3412 73.88 46.4585 73.88" stroke="#D92973" stroke-opacity="0.03" stroke-width="3" stroke-linecap="round"/>
<path d="M56.3184 51.0914C57.5786 51.7286 58.815 52.6812 59.1353 53.94" stroke="#D92973" stroke-opacity="0.03" stroke-width="3" stroke-linecap="round"/>
<path d="M61.7102 61.0615C62.3217 63.1119 61.7148 66.6865 60.5435 68.183" stroke="#D92973" stroke-opacity="0.03" stroke-width="3" stroke-linecap="round"/>
<path d="M47.8672 46.9916C46.6668 46.7291 44.9415 46.7935 43.7451 46.997C42.6211 47.1881 41.5352 47.5632 40.8247 48.2429" stroke="#D92973" stroke-opacity="0.03" stroke-width="3" stroke-linecap="round"/>
<path d="M26.7397 61.0615C27.717 62.9873 28.1482 64.8182 28.1482 66.7587" stroke="#D92973" stroke-opacity="0.03" stroke-width="3" stroke-linecap="round"/>
<path d="M36.5991 76.7286C36.9915 77.0468 37.4694 77.6294 38.0002 77.7357C38.5209 77.84 38.9258 77.9378 39.4161 78.1529" stroke="#D92973" stroke-opacity="0.03" stroke-width="3" stroke-linecap="round"/>
<path d="M47.8672 78.153C48.6826 78.153 49.8164 78.153 50.6842 78.153" stroke="#D92973" stroke-opacity="0.03" stroke-width="3" stroke-linecap="round"/>
<path d="M49.2759 59.6372C50.0673 60.8123 51.6391 61.7484 51.9989 63.164C52.1674 63.8268 52.0578 64.6491 52.0578 65.3344" stroke="#D92973" stroke-opacity="0.03" stroke-width="3" stroke-linecap="round"/>
<path d="M50.6841 56.921C51.5187 56.1501 53.8255 58.9692 54.1271 59.619C54.5746 60.5835 54.9096 61.4107 54.9096 62.4857" stroke="#D92973" stroke-opacity="0.03" stroke-width="3" stroke-linecap="round"/>
<path d="M43.6418 58.2129C41.8139 58.316 39.9709 58.9231 38.6563 59.9245C37.8155 60.5651 38.0331 61.6682 38.0331 62.4858" stroke="#D92973" stroke-opacity="0.03" stroke-width="3" stroke-linecap="round"/>
<path d="M38.0078 68.1829C38.9078 69.5364 40.0029 71.0314 42.2333 71.0314" stroke="#D92973" stroke-opacity="0.03" stroke-width="3" stroke-linecap="round"/>
<path d="M40.8247 66.7587C41.5471 69.8396 43.5144 71.0315 46.4587 71.0315" stroke="#D92973" stroke-opacity="0.03" stroke-width="3" stroke-linecap="round"/>
<path d="M50.6841 71.0314C51.2918 70.5188 51.8791 70.0223 52.5099 69.5496C52.9769 69.1997 53.1621 68.6503 53.5011 68.1829" stroke="#D92973" stroke-opacity="0.03" stroke-width="3" stroke-linecap="round"/>
<path d="M53.501 66.7587C53.501 64.8276 53.501 62.9972 53.501 61.0615" stroke="#D92973" stroke-opacity="0.03" stroke-width="3" stroke-linecap="round"/>
<path d="M37.4595 66.3115C37.4872 66.0029 37.8193 65.707 38.027 65.5041C38.2994 65.2377 38.4777 64.8926 38.777 64.6505C39.1356 64.3604 39.4601 64.0593 39.7808 63.7277C40.0183 63.4821 40.2371 63.193 40.488 62.9664C40.7305 62.7475 40.7962 62.4716 40.9614 62.1993C41.1096 61.9551 41.267 61.7165 41.3891 61.4582C41.5309 61.1585 41.8169 60.9891 42.0051 60.7287C42.0931 60.6069 42.187 60.5337 42.3074 60.4461C42.4618 60.3336 42.5228 60.1744 42.6468 60.0366C42.8359 59.8262 43.0272 59.6004 43.22 59.3964C43.6291 58.9634 44.0047 58.5119 44.3492 58.0295C44.6831 57.562 45.1072 57.0817 45.507 56.6684C46.0655 56.0912 46.4833 55.4076 47.027 54.8171C47.4164 54.3942 47.8254 54.0153 48.239 53.6203C48.6458 53.2318 49.1559 52.8321 49.4481 52.3486C49.5688 52.1489 49.7312 51.9969 49.8417 51.7776C49.9973 51.4687 50.1425 51.1578 50.2951 50.8491C50.5262 50.3816 50.7833 49.8946 51.0907 49.4707C51.7621 48.5449 52.3706 47.6075 52.9073 46.5899C53.0502 46.3188 53.1391 46.0277 53.2808 45.7565C53.4046 45.5196 53.6254 45.323 53.7314 45.0817C53.8948 44.7099 54.2599 44.421 54.5014 44.0955" stroke="#F2F2F2" stroke-width="2" stroke-linecap="round"/>
<path d="M54.6553 43.2131C54.9286 43.3236 55.2233 43.2292 55.5051 43.216C55.807 43.2018 56.1505 43.2504 56.4405 43.1381C56.893 42.9629 57.3638 43.0181 57.8378 42.9017C58.9246 42.6348 60.2754 42.3342 61.1002 41.5002C61.5659 41.0293 61.9517 40.5585 62.5603 40.2948C62.7578 40.2092 62.8862 40.1266 62.9823 39.943C63.0126 39.8851 63.203 39.7354 63.2789 39.7354" stroke="#F2F2F2" stroke-width="2" stroke-linecap="round"/>
<path d="M62.6631 41.085C62.3871 41.3951 62.2113 41.7486 62.0015 42.0971C61.7959 42.4387 61.5768 42.8015 61.4083 43.1612C61.071 43.8813 60.6612 44.4451 60.6612 45.2865C60.6612 46.185 60.6099 47.1072 60.6099 47.9885" stroke="#F2F2F2" stroke-width="2" stroke-linecap="round"/>
<path d="M60.1987 48.7152C60.0012 48.7552 59.8381 48.997 59.6455 49.0786C59.5283 49.1281 59.4053 49.1493 59.2861 49.1939C59.0771 49.2722 58.737 49.5457 58.5276 49.5457C58.3187 49.5457 58.0282 50.0706 57.8375 50.1945C57.6698 50.3035 57.5193 50.4375 57.3555 50.5521C57.2621 50.6175 57.1264 50.7383 57.0276 50.7799C56.7589 50.8931 56.6315 51.1541 56.4116 51.3105C56.2698 51.4114 56.1921 51.5744 56.0523 51.6739C55.8667 51.8059 55.6691 51.9325 55.4791 52.0574C55.3176 52.1636 55.0784 52.185 54.9373 52.3025C54.7374 52.469 54.5042 52.5838 54.2842 52.7236C53.9638 52.927 53.6891 53.2864 53.4715 53.5944C53.1284 54.0802 52.5885 54.4942 52.1397 54.8517C51.9109 55.034 51.6636 55.3291 51.4838 55.5669C51.392 55.6883 51.2816 55.8 51.2043 55.9302C51.1116 56.0865 51.0163 56.3024 50.9078 56.4435C50.6816 56.7376 50.3094 56.9816 50.192 57.3577C50.0818 57.7104 49.7471 57.9847 49.5732 58.3179C49.205 59.0233 48.6875 59.5538 48.1359 60.1116C47.7605 60.4912 47.5326 61.0331 47.1863 61.4612C46.7878 61.9536 46.5051 62.5512 46.0712 63.0068C45.5883 63.514 45.2055 64.0594 44.7937 64.6246C44.5972 64.8942 44.3335 65.2691 44.2233 65.5849C44.1795 65.7103 44.0527 65.8204 43.9895 65.9482C43.9383 66.0518 43.8277 66.2502 43.7471 66.3317C43.4456 66.6366 43.1354 67.1103 42.94 67.5054C42.827 67.734 42.6048 67.9291 42.4495 68.1283C42.3179 68.2973 42.2192 68.5031 42.056 68.6445C41.8821 68.7952 41.9898 68.9734 41.6425 68.8809C41.2754 68.7832 40.9122 68.6219 40.5617 68.4513C40.3727 68.3593 39.1069 67.4482 39.0503 67.5054" stroke="#F2F2F2" stroke-width="2" stroke-linecap="round"/>
<path d="M38.5889 66.3634C38.5889 66.8092 39.2658 66.9331 39.6155 66.9748C39.7224 66.9875 39.9243 66.9433 40.0261 66.9978C40.0958 67.0351 40.0611 67.1078 40.1288 67.142" stroke="#F2F2F2" stroke-width="2" stroke-linecap="round"/>
<path d="M40.1289 66.8306C40.1289 66.3756 40.181 66.159 40.4882 65.804C40.9461 65.2749 41.4616 64.7436 41.9939 64.2929C42.8258 63.5887 43.2133 62.5394 43.8133 61.663C44.1698 61.1423 44.6278 60.7015 44.9939 60.1865C45.3452 59.6926 45.7767 59.2296 46.1888 58.7851C46.7962 58.1299 47.222 57.313 47.6917 56.5531C48.249 55.6513 48.89 54.8394 49.551 54.0096C50.2991 53.0706 51.0455 52.1174 51.821 51.2067C52.1591 50.8096 52.4456 50.3799 52.7563 49.9609C52.9289 49.7282 53.0891 49.4836 53.2697 49.2573C53.4735 49.0018 53.7431 48.8016 53.9313 48.5335C54.5232 47.69 55.1027 46.7165 55.8932 46.042C56.5187 45.5083 57.1497 44.9621 57.7982 44.4588C58.2048 44.1433 58.7073 44.2512 59.1984 44.2512C59.2377 44.2512 59.4289 44.2243 59.4493 44.2656C59.5294 44.4274 59.2686 44.7507 59.1984 44.877C58.6784 45.8118 57.9606 46.7155 57.2735 47.5271C56.3891 48.5716 55.4783 49.5825 54.4759 50.5059C53.1116 51.763 51.6468 52.8756 50.4065 54.2692C49.912 54.8248 49.4558 55.4186 48.9693 55.9821C48.9424 56.0131 48.7497 56.2912 48.7582 56.2878C49.2638 56.0833 49.7576 55.5534 50.1784 55.2208C51.5775 54.1151 53.1207 53.1714 54.282 51.7863C54.9353 51.0072 55.4507 50.0448 56.1955 49.3496C56.4352 49.1259 56.7044 48.9409 56.9028 48.6748C57.0836 48.4322 57.2503 48.2069 57.4845 48.0115C58.1804 47.431 58.904 46.9167 59.6347 46.3794" stroke="#F2F2F2" stroke-width="2" stroke-linecap="round"/>
<path d="M30.0947 37.8447C30.0947 38.2964 30.5849 38.6437 30.7544 39.0332C30.8262 39.1983 31.1051 39.4821 31.2281 39.6154C31.3204 39.7154 31.3989 39.8241 31.4979 39.9186C31.6429 40.0568 31.8065 39.9961 31.9717 40.0823C32.248 40.2265 32.7285 40.1369 33.0361 40.1369C33.3466 40.1369 33.6581 40.13 33.9685 40.1369C34.3201 40.1446 34.6544 40.246 35.012 40.246C35.2763 40.246 35.6682 40.3028 35.9204 40.3825C36.3118 40.5061 36.4001 40.6568 36.5441 41.0646C36.6659 41.4095 36.8518 41.6996 36.9759 42.0258C37.1544 42.4953 37.3303 42.9988 37.4376 43.4872C37.4558 43.5702 37.5758 43.6552 37.6085 43.7509C37.6672 43.9229 37.6923 44.1015 37.7584 44.2724C37.8845 44.5982 38.0312 44.9884 38.2321 45.2669C38.72 45.9429 39.2874 46.5805 39.7133 47.2983C39.9112 47.6318 40.2435 47.8618 40.4329 48.1927C40.6344 48.5447 40.8957 48.8394 41.0925 49.1963C41.285 49.5453 41.5629 49.9109 41.8061 50.2271C42.0164 50.5005 42.1131 50.7977 42.2619 51.1064C42.4241 51.4431 42.6233 52.1043 42.9665 52.2585C43.1352 52.3344 43.2204 52.6542 43.3743 52.7709C43.6165 52.9547 44.005 53.4225 43.7281 53.6714C43.5161 53.862 43.2556 54.122 43.0774 54.3536C42.9809 54.4791 42.8136 54.4398 42.7116 54.5992C42.6341 54.7203 42.458 54.8216 42.3998 54.9539C42.3266 55.1205 42.1973 55.443 42.076 55.2965C41.887 55.0683 41.6743 54.6395 41.4403 54.4597C41.0583 54.1661 40.8036 53.7066 40.4809 53.344C40.1723 52.9973 39.8647 52.5942 39.5934 52.21C39.4609 52.0225 39.2842 51.9337 39.1346 51.7825C38.9737 51.6198 38.7599 51.5942 38.5919 51.4339C38.5302 51.3749 38.5114 51.3912 38.43 51.3762C38.3115 51.3545 38.3016 51.2285 38.1902 51.1883C38.0263 51.1291 37.7452 51.0091 37.6475 50.8608C37.4809 50.6082 37.1346 50.451 37.0028 50.1513C36.9563 50.0454 36.8554 50.0975 36.775 50.0452C36.5901 49.9251 36.4506 49.7903 36.2473 49.6875C35.6703 49.3957 35.0969 49.1058 34.5202 48.8143C34.2134 48.6591 33.9296 48.4454 33.6028 48.3352C33.3655 48.2552 33.126 48.1886 32.9131 48.0502C32.6902 47.9053 32.4484 47.7205 32.1965 47.6409C31.6003 47.4525 30.9569 47.2733 30.4185 46.9708C30.2162 46.8572 30.4974 46.3208 30.5565 46.1856C30.8156 45.5915 31.0448 44.9103 31.0662 44.2542C31.1048 43.071 31.2763 41.8794 31.1321 40.6947C31.1097 40.5105 31.1201 40.3222 31.1201 40.1369C31.1201 40.0167 31.1878 40.5264 31.2371 40.6311C31.4348 41.051 31.7763 41.4159 32.0496 41.7862C32.588 42.5157 33.2628 43.1085 33.8186 43.8176C34.7271 44.9766 35.5728 46.2618 36.3072 47.5408C36.5188 47.9094 36.7345 48.2629 37.0208 48.5778C37.0272 48.5847 37.4106 48.9828 37.4106 48.9083C37.4106 48.6331 37.1417 48.2751 37.0118 48.0563C36.6869 47.5086 36.3293 46.9844 35.9504 46.4736C35.3435 45.6554 34.7732 44.8115 34.1664 43.9935C33.7988 43.4979 33.4636 43.0305 33.2669 42.4411C33.1804 42.1816 33.117 41.9499 33.117 41.6741C33.117 41.4393 33.913 41.9662 34.0045 42.0197C35.218 42.7283 35.6046 44.1296 36.2173 45.3336C36.5783 46.0431 36.9438 46.7496 37.2937 47.4651C37.335 47.5496 37.8902 48.5513 37.7164 48.5232C37.5745 48.5002 37.4297 48.3767 37.3087 48.311C36.8594 48.0668 36.3825 47.8811 35.9354 47.6318C34.9895 47.1043 34.1405 46.4233 33.3029 45.7399C33.2302 45.6806 32.6383 45.0986 32.5503 45.1183C32.2632 45.1829 33.1272 46.3027 33.204 46.3736C33.7426 46.8708 34.4142 47.2063 34.982 47.6682C35.5545 48.1339 36.0447 48.6976 36.6011 49.1842C36.8331 49.3871 37.1196 49.6595 37.2187 49.9603" stroke="#F2F2F2" stroke-width="2" stroke-linecap="round"/>
<path d="M36.3008 39.864C36.4876 39.864 36.716 39.8137 36.7865 40.0278" stroke="#F2F2F2" stroke-width="2" stroke-linecap="round"/>
<path d="M40.5645 52.6344C40.4789 51.6825 39.6206 50.7732 39.0114 50.1239C38.5923 49.6773 38.1621 49.2681 37.6681 48.9081C37.5087 48.792 37.2641 48.5233 37.0505 48.511C36.9307 48.504 37.1764 48.8164 37.1794 48.8202C37.4639 49.1755 37.8747 49.4605 38.2258 49.7419C38.8509 50.2431 39.5017 50.7086 40.1777 51.1366C40.4806 51.3283 40.7651 51.4927 40.9573 51.8036C41.4493 52.5997 39.6978 50.4238 39.0533 49.748C38.6368 49.3112 38.2045 48.8944 37.836 48.4139C37.5956 48.1005 37.7035 48.3345 37.836 48.5413C38.613 49.754 39.5134 50.8621 40.5225 51.8825C40.794 52.157 41.0592 52.4363 41.38 52.6526C41.4526 52.7015 41.5615 52.7435 41.428 52.7435" stroke="#F2F2F2" stroke-width="2" stroke-linecap="round"/>
<path d="M54.6552 70.2556C54.7106 70.0499 55.0412 69.7639 55.1972 69.6307C55.3702 69.483 55.5939 69.3008 55.7357 69.1227C56.061 68.7144 56.3667 68.3022 56.7367 67.9388C56.894 67.7842 56.9931 67.623 57.127 67.4528C57.2349 67.3155 57.423 67.1947 57.51 67.0508C57.5597 66.9686 57.7708 66.8277 57.7774 66.7438C57.7913 66.569 57.2372 66.4306 57.1125 66.3419C56.7848 66.1087 56.5794 65.7548 56.2886 65.4868C55.9284 65.1549 55.5148 64.871 55.1755 64.5184C54.9689 64.3036 54.7816 64.0646 54.5504 63.8753C54.4248 63.7725 54.2687 63.7059 54.1348 63.6122C53.9976 63.5161 53.8852 63.3918 53.7517 63.2906C53.3479 62.9843 53.0927 62.4597 52.7363 62.0993C52.5878 61.9491 52.5016 61.7612 52.3605 61.606C52.2884 61.5267 52.2079 61.4267 52.1762 61.3246C52.1449 61.2239 52.0552 61.1888 52.0045 61.109C51.9899 61.086 51.9352 60.9475 51.9015 60.9537C51.7949 60.9733 51.6696 61.1786 51.6016 61.2588C51.4735 61.41 51.3555 61.5418 51.1914 61.6553C50.8746 61.8745 50.6281 62.1556 50.3621 62.4245C50.2036 62.5847 50.1793 62.8653 50.2013 63.0878C50.2238 63.3153 50.3163 63.4623 50.4091 63.6633C50.6286 64.139 50.9886 64.5047 51.2727 64.9459C51.5238 65.3358 51.7866 65.7152 52.0533 66.0952C52.255 66.3827 52.4593 66.6715 52.655 66.9631C52.8924 67.3169 53.1789 67.6878 53.4988 67.9662C53.5712 68.0292 54.1034 68.5302 54.1348 68.3078C54.2498 67.4937 53.862 66.8194 53.4554 66.1372C53.2256 65.7517 52.9813 65.3755 52.7218 65.0099C52.4507 64.6278 52.2211 64.2166 51.8853 63.8862C51.8838 63.8848 51.7528 63.7325 51.8383 63.8442C51.9826 64.0327 52.1368 64.2059 52.3063 64.3722C52.8137 64.8704 53.3777 65.3039 53.8873 65.7992C54.4622 66.358 54.8864 66.9583 55.2081 67.6903" stroke="#F2F2F2" stroke-width="2" stroke-linecap="round"/>
<path d="M31.6665 67.8694C32.204 67.3258 32.9698 67.1061 33.5031 66.5668C33.5917 66.4772 33.6798 66.4635 33.7069 66.3404C33.7578 66.1084 33.871 66.7868 33.9761 66.9993C34.1954 67.443 34.5324 67.8507 34.839 68.2383C35.1832 68.6734 35.6953 68.9292 36.1019 69.289C36.4787 69.6223 36.826 70.019 37.2618 70.2761C37.7744 70.5785 38.4117 70.6795 38.8643 71.08C39.2592 71.4294 39.727 71.7548 40.2254 71.945C40.7092 72.1296 41.1046 72.4871 41.5739 72.6879C41.666 72.7272 41.6968 72.9604 41.7299 73.044C41.7962 73.2115 41.7793 73.3961 41.6494 73.5274C41.409 73.7705 41.1414 74.0921 40.8594 74.2703C40.7788 74.3212 40.7137 74.4095 40.6431 74.4738C40.5983 74.5146 40.5773 74.499 40.5198 74.5119C40.4417 74.5295 40.1738 75.2924 40.1202 75.3044C39.8766 75.3592 39.6892 74.0939 39.5235 73.9599C39.1259 73.6382 38.7302 73.3428 38.3486 73.0033C37.6958 72.4224 37.2085 71.6622 36.5925 71.0393C36.041 70.4815 35.3253 70.0604 34.7006 69.5866C34.3297 69.3053 33.9581 68.995 33.6641 68.6301C33.5525 68.4916 33.4074 68.3871 33.2968 68.251C33.1858 68.1145 33.1411 67.9805 32.9798 67.9152" stroke="#E9E9E9" stroke-width="2" stroke-linecap="round"/>
<path d="M53.854 74.2892C54.1546 73.7825 54.8043 73.4804 55.2902 73.1981C55.655 72.9861 56.045 72.8333 56.3864 72.5795C56.8231 72.2548 57.238 71.9392 57.6231 71.5498C57.8372 71.3333 58.0574 71.1234 58.2728 70.9082C58.512 70.6692 58.797 70.4676 58.9985 70.1936C59.2878 69.8002 59.5829 69.4045 59.899 69.0333C60.1457 68.7435 60.3953 68.4039 60.7121 68.1861C60.9514 68.0215 61.1645 67.7845 61.3428 67.5541C61.4767 67.381 61.5335 67.1781 61.6676 67.0123C61.7087 66.9615 61.8309 66.6965 61.8747 66.6838C61.9516 66.6616 61.9441 66.5769 62.0096 66.5474C62.0968 66.5083 62.0432 66.5076 62.1027 66.4475C62.1744 66.375 62.533 66.5153 62.5928 66.5647C62.7263 66.6752 62.9207 66.7892 63.0297 66.924C63.1328 67.0513 63.2741 67.1519 63.3926 67.2717C63.4955 67.3758 63.4629 67.5097 63.4629 67.6501C63.4629 67.7193 63.4629 67.7884 63.4629 67.8576C63.4629 67.9397 63.5017 67.9089 63.5484 67.9613C63.6198 68.0416 63.707 68.1536 63.7896 68.2111C63.9968 68.3551 63.6305 68.5697 63.5237 68.6683C63.1211 69.0397 62.7913 69.4666 62.3724 69.8267C61.88 70.2499 61.4224 70.6764 60.9666 71.1426C60.651 71.4653 60.4281 71.86 60.1098 72.1818C59.8305 72.4643 59.5513 72.7548 59.291 73.0521C58.9938 73.3916 58.6654 73.6028 58.2652 73.8051C57.938 73.9706 57.6093 74.132 57.3077 74.3392C57.0946 74.4856 56.9036 74.6557 56.6941 74.8041C56.5304 74.9199 56.3846 75.0671 56.2135 75.1729C56.1171 75.2325 55.9774 75.4523 55.8715 75.4649C55.7406 75.4805 55.9357 75.4203 55.9817 75.4034C56.2009 75.3228 56.4297 75.2293 56.6371 75.121C56.983 74.9405 57.2583 74.6535 57.5965 74.4698C57.7414 74.3911 57.854 74.3031 57.984 74.2009C58.0282 74.1661 58.2413 73.994 58.0619 74.1067C57.7398 74.3092 57.3912 74.4468 57.0893 74.683C56.903 74.8288 56.6962 74.9238 56.4946 75.0423C56.3097 75.151 56.0998 75.1191 55.8924 75.1191C55.8143 75.1191 55.711 75.137 55.636 75.1153C55.5582 75.0928 55.6025 74.9808 55.4954 74.9808" stroke="#E9E9E9" stroke-width="2" stroke-linecap="round"/>
<path d="M25.6409 85.268C26.9297 84.247 28.3702 83.3667 29.5542 82.2173C30.0427 81.7431 30.3061 81.0878 30.7297 80.5622C31.2326 79.9381 31.6679 79.1726 32.2697 78.6401C32.7663 78.2007 33.1381 77.668 33.5419 77.143C33.8419 76.7529 34.1869 76.4061 34.4793 76.007C34.6137 75.8235 35.2038 75.4781 35.2158 75.2471C35.2333 74.9111 34.2469 74.6185 34.0106 74.3669C33.7971 74.1397 33.5566 73.8535 33.408 73.5845C33.2456 73.2908 33.1401 73.1933 33.1401 72.8435C33.1401 72.7378 33.2159 72.2048 32.9765 72.3432C32.828 72.429 33.6083 72.9616 33.6758 73.0128C33.9824 73.2453 34.2586 73.4992 34.5425 73.7576C34.9413 74.1205 35.3209 74.5134 35.7477 74.8371C35.878 74.936 36.2235 75.1437 36.2871 75.2885C36.3346 75.3965 36.5172 75.4965 36.4582 75.6158C36.3397 75.8555 36.0484 76.0147 35.811 76.0973C35.0487 76.3622 34.2434 76.6415 33.5753 77.1091C33.2383 77.3451 33.0094 77.693 32.6751 77.9254C31.932 78.442 31.7091 79.3365 31.3992 80.1372C31.1492 80.7833 30.911 81.356 30.5437 81.9503C30.2582 82.4121 29.9131 82.8297 29.5914 83.2668C29.3016 83.6606 29.0658 84.0902 28.7581 84.4705C28.2605 85.0856 27.7233 85.6415 27.419 86.3889C27.3505 86.5571 27.2824 86.7179 27.233 86.893C27.1328 87.2476 27.1104 86.8895 27.0433 86.7538C26.8387 86.34 26.6484 85.861 26.277 85.5689C26.0402 85.3827 25.7489 85.2493 25.5367 85.0348C25.4277 84.9245 24.8374 84.8485 24.8374 84.6736C24.8374 84.386 25.4878 84.112 25.6781 83.9778C26.1982 83.6108 26.6683 83.2214 27.1065 82.7552C27.9295 81.8798 28.7569 80.9062 29.4947 79.9566C30.2981 78.9227 30.7881 77.7358 31.2951 76.5487C31.3444 76.4331 31.455 76.3637 31.5034 76.2477C31.5654 76.0992 31.5644 75.9363 31.6373 75.7888C31.7522 75.5564 31.7969 75.3197 31.92 75.0967C32.0918 74.7854 31.957 74.3672 32.1358 74.0961" stroke="#B3B3B3" stroke-width="2" stroke-linecap="round"/>
<path d="M31.2651 80.3252C31.6837 80.2913 31.8396 79.7818 32.0984 79.5127C32.4059 79.1929 32.7449 78.9236 33.073 78.6287C33.5409 78.2081 33.9731 77.7983 34.4791 77.4288C35.032 77.025 35.5835 76.6542 36.1196 76.2326C36.371 76.0348 36.6713 75.7975 36.9565 75.6533" stroke="#B3B3B3" stroke-width="2" stroke-linecap="round"/>
<path d="M60.1965 76.2952C60.1965 76.2952 60.4844 76.0517 60.5437 76.0165C60.9481 75.7764 61.063 75.1706 61.4847 74.9672C62.0188 74.7095 62.5328 74.4629 63.0395 74.1531C63.1902 74.061 63.3395 73.9086 63.4219 73.7511C63.4573 73.6835 63.4992 73.6421 63.5024 73.5578C63.5032 73.5389 63.4907 73.3772 63.5226 73.3848C63.6436 73.4136 63.7691 73.9465 63.8295 74.0615C63.9659 74.3213 64.1053 74.5945 64.1918 74.8756C64.339 75.3539 64.4438 75.8152 64.5641 76.2952C64.7781 77.1484 65.3058 77.7815 65.9026 78.4017C66.3007 78.8154 66.7202 79.3663 66.9441 79.9027C67.1091 80.2978 67.4733 80.5353 67.724 80.8643C67.8738 81.0609 68.1055 81.1477 68.2675 81.3324C68.4522 81.5431 68.6726 81.7115 68.8713 81.9074C69.2943 82.3244 71.4681 83.6703 70.0235 84.192C69.5542 84.3614 69.0521 84.7196 68.9015 85.2147C68.8933 85.2415 68.8979 85.4371 68.8461 85.3877C68.7074 85.2552 68.5654 85.0489 68.4486 84.8941C68.332 84.7395 68.2006 84.652 68.1014 84.482C67.9776 84.2698 67.8442 84.0595 67.714 83.851C67.4209 83.3817 67.1912 82.8637 66.9089 82.3857C66.5972 81.8579 66.3255 81.2908 65.9831 80.7829C65.6451 80.2817 65.3367 79.6634 64.8962 79.2463C64.4319 78.8066 63.9411 78.3146 63.5477 77.8064C63.2312 77.3973 62.891 76.9917 62.5615 76.5903C62.3808 76.3702 62.0374 75.9868 61.7615 76.229C61.7124 76.2721 61.494 76.3182 61.52 76.3969C61.5881 76.6037 61.8158 76.6636 61.9627 76.7989C62.3386 77.145 62.7136 77.4705 63.0647 77.842C63.3189 78.111 63.5053 78.435 63.7993 78.6663C64.0837 78.8899 64.3745 79.1734 64.5893 79.4651C64.7285 79.6541 64.7827 79.8961 64.9264 80.0858C65.0538 80.254 65.1701 80.4247 65.2887 80.5997C65.4843 80.8885 65.7482 81.1764 65.9931 81.424" stroke="#B3B3B3" stroke-width="2" stroke-linecap="round"/>
<path d="M22.5142 85.4981C23.379 84.2737 24.5269 83.2693 25.4337 82.0671C26.6371 80.4716 27.8241 79.0221 28.8266 77.2797C29.6683 75.8168 30.5205 74.372 31.1587 72.8026C31.5522 71.8349 31.6773 70.7962 32.1406 69.8593" stroke="#434343" stroke-linecap="round"/>
<path d="M32.1406 69.8593C33.0947 70.1349 33.4584 70.6785 34.0343 71.4551C34.774 72.4523 35.5454 73.3653 36.5242 74.1325C37.1673 74.6364 38.5859 75.1298 39.0492 75.7992C39.1659 75.9677 35.6416 78.444 35.2968 78.6716C33.6135 79.7828 32.4446 81.1273 31.3516 82.7852C30.1402 84.6226 29.2008 86.602 27.9148 88.3705C27.7798 88.5562 27.6528 89.2007 27.2836 88.9379C26.7631 88.5676 26.4723 87.493 26.0561 86.9698C25.2696 85.981 24.4699 85.9768 23.3032 85.9768" stroke="#434343" stroke-linecap="round"/>
<path d="M32.7716 70.338C32.2304 69.8454 31.6402 69.4665 31.1584 68.9018C30.6344 68.2876 30.464 67.8342 30.1239 67.1464C29.9416 66.7778 31.4754 66.279 31.7897 66.118C32.4237 65.7933 33.4663 64.7334 33.5519 63.9548C33.607 63.4527 33.7545 63.177 34.0341 63.813C34.3992 64.6437 35.1073 65.2679 35.6034 66.0205C36.3024 67.0807 37.0735 67.7979 38.1372 68.4851C38.8566 68.9499 39.7206 69.2001 40.3114 69.8593C41.0088 70.6374 41.8866 71.4799 42.7487 72.0934C43.1424 72.3735 43.4729 72.7317 43.9761 72.7317C44.0693 72.7317 44.6172 72.8513 44.66 72.909C44.7215 72.9919 43.5621 73.7996 43.5027 73.8488C42.8178 74.4155 42.3209 75.0896 41.758 75.7726C40.807 76.9267 40.6475 77.664 39.3996 76.4021" stroke="#434343" stroke-linecap="round"/>
<path d="M36.5596 66.3484C36.5596 65.4983 36.8623 65.3581 37.2873 64.664C37.6627 64.0507 38.2393 63.492 38.6812 62.9175C39.1768 62.2732 39.5577 61.471 40.1541 60.9227C41.2474 59.9177 42.1704 58.548 43.0298 57.341C43.8018 56.2568 44.7845 55.3383 45.5898 54.2913C47.1767 52.2281 48.697 50.1722 50.1313 47.9967C51.1486 46.4537 52.2461 44.881 52.8842 43.1295C53.2866 42.0252 54.3935 42.2907 55.3741 41.8972C57.4498 41.0643 59.4849 40.1274 61.5901 39.3705C63.2524 38.7729 64.7948 37.5267 65.9123 36.1523C66.3105 35.6627 66.8135 35.3062 67.1748 34.787C67.6679 34.0785 67.0314 35.284 66.9293 35.4697C66.1173 36.9478 65.0562 38.3069 64.4219 39.8936C63.9749 41.0118 63.6152 42.1698 63.1594 43.2891C62.2893 45.4261 61.8093 47.7263 61.8093 50.0713" stroke="#434343" stroke-linecap="round"/>
<path d="M42.5566 70.6572C42.6696 69.5145 43.8533 68.3091 44.4504 67.4035C45.4307 65.9166 46.6682 64.4249 47.9222 63.1569C48.9813 62.0859 49.8473 60.8719 50.7628 59.6816C51.5078 58.713 52.1479 57.6781 53.0072 56.8091C53.7685 56.0393 54.3704 54.9641 55.2867 54.3711C56.3845 53.6607 57.3075 52.7281 58.4078 51.9863C59.416 51.3066 60.466 50.4315 61.4939 49.9117" stroke="#434343" stroke-linecap="round"/>
<path d="M54.4401 71.3343C54.1084 70.5718 52.011 68.2363 51.429 67.6606C50.5861 66.8269 49.9086 65.8553 49.1056 64.9832C48.0662 63.8543 49.114 64.6407 48.1019 63.5007M42.4679 57.8035C41.504 56.7313 40.8387 56.0641 39.8211 55.0538C38.7813 54.0214 37.6989 53.0607 36.6298 52.0661C35.3914 50.914 33.3583 50.1812 31.8166 49.5217C31.0871 49.2096 30.473 48.76 29.7037 48.5553C29.4634 48.4914 28.698 48.4995 28.6692 48.1209C28.6002 47.2138 28.9555 46.1942 29.2916 45.3726C29.7075 44.3564 29.616 43.1678 29.616 42.0923C29.616 41.0211 29.8309 39.7091 29.3706 38.7234C28.897 37.7093 28.3384 36.8484 27.7574 35.9042C27.3767 35.2854 25.9962 33.6454 26.5826 34.069C27.6757 34.8585 28.5662 35.8963 29.7037 36.6311C31.1381 37.5578 32.9736 38.7411 34.7361 38.7411C35.665 38.7411 36.5643 38.9007 37.5066 38.9007C37.6622 38.9007 38.3375 38.8081 38.4184 38.9716C38.688 39.517 38.4534 40.6119 38.4534 41.2235C38.4534 43.553 40.6505 45.1911 41.7674 47.0393C43.2761 49.5356 44.2016 51.23 45.9892 53.5307M51.6232 58.5157C52.6302 59.497 54.8777 61.9174 55.9616 62.82C56.8303 63.5434 58.6606 65.4727 59.3699 66.3493" stroke="#434343" stroke-linecap="round"/>
<path d="M52.3404 74.0083C52.6409 73.9408 52.9169 73.4254 53.1295 73.2104C53.5916 72.7431 54.1145 72.3407 54.6287 71.9338C55.5472 71.2069 56.285 70.2782 57.1975 69.5401C58.696 68.3278 59.7755 66.7913 61.0814 65.4708C61.2339 65.3165 61.1218 65.0622 61.3356 64.9477C61.6534 64.7776 61.6618 64.8732 61.8441 64.5044C62.2291 63.7258 62.7992 64.711 63.0715 65.0009C63.8984 65.8811 64.8172 66.7713 65.6754 67.4655C66.3379 68.0015 65.6971 68.3317 65.316 69.0613C64.6829 70.273 63.879 70.948 62.9313 71.8629C61.5766 73.1705 59.9769 74.1057 58.6528 75.4445C58.2057 75.8967 57.5796 76.9199 56.9958 77.1822C56.4301 77.4365 56.2623 78.0926 55.7421 77.2797C55.1642 76.3765 54.6046 76.2026 53.7607 75.5687C53.3132 75.2325 52.4226 74.6532 52.1826 74.1679" stroke="#434343" stroke-linecap="round"/>
<path d="M57.8345 76.0548C58.2275 76.4125 58.7117 76.4022 59.1659 76.6318C59.6095 76.8561 60.0819 77.1219 60.4022 77.4919C61.025 78.2118 61.7924 78.7535 62.4521 79.4206C63.0023 79.9769 63.6382 80.532 64.0688 81.2051C64.2821 81.5384 64.5782 81.9857 64.8772 82.2629C65.1775 82.5413 65.3163 83.135 65.6327 83.3421C65.868 83.496 66.279 84.0417 66.3724 84.3251C66.5104 84.7437 66.9079 85.1625 67.1121 85.5753C67.3077 85.9711 67.5975 86.2866 67.7725 86.6759C67.856 86.8616 68.0556 86.9182 68.1053 87.1193C68.1721 87.3895 68.2964 87.553 68.4857 87.7444C68.583 87.8428 68.7602 88.5039 68.9401 87.9581C69.0049 87.7617 68.9108 87.6118 69.0563 87.4559C69.2386 87.2608 69.2667 87.0344 69.3416 86.7881C69.3885 86.6341 69.717 86.098 69.8171 86.0348C69.946 85.9534 69.916 85.832 70.0602 85.7463C70.1833 85.673 70.4095 85.5503 70.4881 85.4311C70.5794 85.2926 71.1373 85.0782 71.2912 85.009C71.417 84.9525 71.5807 84.9021 71.7192 84.9021C71.9472 84.9021 72.1024 84.721 72.2898 84.7098C72.443 84.7007 72.8594 84.7549 72.9343 84.5709C73.0039 84.4001 72.1407 83.826 71.9675 83.7481C71.6719 83.6153 71.3915 83.2667 71.1908 83.0269C70.9299 82.715 70.7006 82.0571 70.3878 81.8462C69.7391 81.4089 69.4252 80.3818 68.8609 79.8587C68.3687 79.4025 67.6288 78.4432 67.4185 77.7858C67.2867 77.3738 66.7749 76.8038 66.4886 76.4822C66.197 76.1545 66.0968 75.707 65.8652 75.3389C65.6075 74.9294 65.4737 74.5438 65.3369 74.094C65.2151 73.6941 64.9201 73.3012 64.7979 72.8813C64.7218 72.6194 64.3964 72.186 64.3964 71.9677C64.3964 71.7598 64.1632 71.2991 64.016 71.1503" stroke="#434343" stroke-linecap="round"/>
<path d="M16.6211 57.2068H29.2725" stroke="#434343" stroke-linecap="round"/>
<path d="M66.7988 57.8909H79.4502" stroke="#434343" stroke-linecap="round"/>
<path d="M16.4009 62.4353H29.8223" stroke="#434343" stroke-linecap="round"/>
<path d="M66.5786 63.1193H80.0001" stroke="#434343" stroke-linecap="round"/>
<path d="M26.8726 54.6803C27.1016 54.706 27.295 55.1194 27.484 55.2539C27.7772 55.4625 28.0716 55.6691 28.3311 55.9243C28.6346 56.2226 29.2131 56.8256 29.657 56.8256" stroke="#434343" stroke-linecap="round"/>
<path d="M77.0503 55.3643C77.2794 55.39 77.4728 55.8034 77.6617 55.9378C77.9549 56.1465 78.2493 56.3531 78.5088 56.6082C78.8123 56.9066 79.3908 57.5095 79.8347 57.5095" stroke="#434343" stroke-linecap="round"/>
<path d="M29.7237 57.0938C29.6628 57.3865 29.2233 57.6119 28.9945 57.779C28.6057 58.063 28.187 58.2988 27.8159 58.6059C27.5072 58.8613 27.31 59.2266 27.1382 59.5742" stroke="#434343" stroke-linecap="round"/>
<path d="M79.901 57.7777C79.84 58.0705 79.4005 58.2959 79.1717 58.463C78.7829 58.747 78.3642 58.9828 77.9931 59.2898C77.6844 59.5452 77.4873 59.9106 77.3154 60.2582" stroke="#434343" stroke-linecap="round"/>
<path d="M16.0669 62.1887C16.3818 62.1251 16.6843 61.7786 16.9619 61.6226C17.245 61.4636 17.5054 61.3023 17.7611 61.1012C18.048 60.8756 18.3443 60.4674 18.6524 60.3116" stroke="#434343" stroke-linecap="round"/>
<path d="M66.2441 62.8727C66.559 62.809 66.8615 62.4625 67.1391 62.3066C67.4222 62.1475 67.6827 61.9863 67.9384 61.7852C68.2253 61.5595 68.5216 61.1514 68.8297 60.9956" stroke="#434343" stroke-linecap="round"/>
<path d="M16 62.5909C16.0177 62.7338 16.2762 62.8951 16.3978 62.9634C16.5909 63.0719 16.6819 63.2575 16.8655 63.3619C17.2269 63.5675 17.5566 63.8417 17.9889 63.8647C18.2963 63.8811 18.5934 64.0875 18.847 64.2371C19.0113 64.334 19.1288 64.6021 19.3148 64.6021" stroke="#434343" stroke-linecap="round"/>
<path d="M66.1777 63.2749C66.1954 63.4178 66.4539 63.579 66.5755 63.6473C66.7686 63.7558 66.8597 63.9414 67.0433 64.0459C67.4047 64.2514 67.7344 64.5256 68.1666 64.5486C68.4741 64.565 68.7712 64.7715 69.0248 64.9211C69.189 65.018 69.3065 65.2861 69.4925 65.2861" stroke="#434343" stroke-linecap="round"/>
<defs>
<filter id="filter0_i_27_3134" x="0.75" y="0.75" width="94.5" height="135.5" filterUnits="userSpaceOnUse" color-interpolation-filters="sRGB">
<feFlood flood-opacity="0" result="BackgroundImageFix"/>
<feBlend mode="normal" in="SourceGraphic" in2="BackgroundImageFix" result="shape"/>
<feColorMatrix in="SourceAlpha" type="matrix" values="0 0 0 0 0 0 0 0 0 0 0 0 0 0 0 0 0 0 127 0" result="hardAlpha"/>
<feOffset dx="5"/>
<feGaussianBlur stdDeviation="2"/>
<feComposite in2="hardAlpha" operator="arithmetic" k2="-1" k3="1"/>
<feColorMatrix type="matrix" values="0 0 0 0 0 0 0 0 0 0 0 0 0 0 0 0 0 0 0.02 0"/>
<feBlend mode="normal" in2="shape" result="effect1_innerShadow_27_3134"/>
</filter>
</defs>
</svg>
