<svg width="22" height="30" viewBox="0 0 22 30" fill="none" xmlns="http://www.w3.org/2000/svg">
<path d="M14.8318 18.6707C14.6968 18.643 16.2288 18.8811 16.1028 18.9292C15.8532 19.0244 15.5668 19.1337 15.3173 19.1704C15.0507 19.2095 14.7394 19.5969 14.5866 19.7936C14.2593 20.2146 13.8449 20.7177 13.4437 21.0746C12.9107 21.5488 12.1355 22.1995 11.8418 22.8557C11.7187 23.1306 11.311 23.4294 11.0749 23.6228C10.7773 23.8665 10.2937 24.1972 10.0849 24.5205C9.78855 24.9791 9.38883 25.308 9.16353 25.8112C8.90176 26.3959 8.62151 25.1161 8.58519 24.9171C8.50812 24.4948 8.37678 24.0891 8.34313 23.6607C8.23175 22.243 7.6059 20.7967 6.75907 19.6533C6.52271 19.3342 6.40962 18.9638 6.08192 18.6961C5.75901 18.4324 6.8332 18.0387 6.61923 17.6852C6.47159 17.4412 7.85375 17.4709 4.63532 17.051C6.33541 16.7112 4.69969 16.5736 5.27807 16.7083C5.89844 16.8528 6.5757 17.1575 7.16149 17.4198C7.37834 17.5169 7.62415 17.438 7.85375 17.4709C8.28922 17.5335 8.65162 16.5179 8.71483 16.2097C8.78202 15.8821 8.69874 15.5385 8.82435 15.2189C8.95757 14.88 8.98246 14.3844 9.01903 14.0169C9.09275 13.2762 9.02838 12.4902 9.18606 11.7627C9.33804 11.0615 9.56024 10.223 9.55888 9.51124C9.55802 9.06 9.59104 8.57366 9.64416 8.13321C9.71316 7.5611 9.57419 6.98447 9.71645 6.4059C9.79403 6.09036 9.6718 5.5273 9.59629 5.21349C9.50515 4.83471 9.43774 4.38896 9.29954 4.02671C9.16272 3.66806 9.10586 3.32146 8.98934 2.97506C8.93328 2.80838 8.82808 2.42814 8.87226 2.25923C9.07432 1.4866 10.2597 2.02173 10.7735 2.17415C11.0405 2.25336 11.3197 2.18134 11.5909 2.22957C11.7455 2.25706 11.8736 2.36023 12.0283 2.38772C12.4492 2.46257 12.9441 2.51179 13.3452 2.66208C14.0526 2.92718 14.797 2.9686 15.5153 3.29018C16.2491 3.6187 16.9991 3.8698 17.7378 4.20053C18.1186 4.37101 19.0049 4.58621 18.7634 5.1255C18.6845 5.30188 18.6055 5.47825 18.5265 5.65462C18.4298 5.8707 18.2268 6.06049 18.5038 5.97853C18.6636 5.93126 18.8923 5.41964 19.0455 5.29414C19.293 5.09144 18.747 6.07543 18.672 6.18086C18.3653 6.61198 17.9695 6.89877 17.7527 7.38308C17.3703 8.23709 16.4978 8.86191 16.1042 9.74095C16.0093 9.95286 15.8316 10.3546 15.6261 10.4726C15.4571 10.5696 15.4304 10.9612 15.3135 11.1184C14.9957 11.5455 14.8053 12.0746 14.5835 12.5701C14.4601 12.8457 14.3367 13.1214 14.2133 13.3971C14.0858 13.6817 14.1161 13.9926 13.9982 14.2559C13.8024 14.6931 13.5273 15.1508 13.4686 15.6279C13.4312 15.9315 13.2831 16.1444 13.1974 16.4334C13.1153 16.71 13.1315 16.9483 13.0082 17.2238C12.8249 17.6333 12.7438 18.4112 13.2329 18.6136C13.4909 18.7203 13.7968 18.5273 14.0294 18.6314C14.1761 18.6971 14.4043 18.6795 14.5582 18.68C14.7344 18.6804 15.1368 18.6143 14.9912 18.8268C14.4993 19.5445 13.3844 19.7791 12.7181 20.3309C12.1617 20.7917 11.7908 21.4573 11.3326 22.0067C10.9959 22.4105 10.6682 22.9236 10.4189 23.3856C10.2696 23.6621 10.3108 23.3739 10.3121 23.2248C10.3167 22.6865 10.2468 22.1994 10.1305 21.6756C9.9684 20.9451 9.65826 20.4475 9.16303 19.9062C8.83386 19.5464 8.72574 19.0537 8.41374 18.7003C8.26491 18.5317 8.48261 18.7835 8.51015 18.8423C8.72887 19.3093 8.90211 19.9439 9.00546 20.4473C9.16295 21.2144 9.48518 23.5394 9.30303 22.7778C9.15693 22.1669 8.89501 21.588 8.63766 21.0166C8.47593 20.6575 8.17355 20.281 8.08609 19.8945C8.03389 19.6639 7.95291 19.5002 7.84488 19.2878C7.72404 19.0502 7.46936 18.8061 7.37985 18.5715C7.16693 18.0133 7.7017 18.1754 8.06157 18.3309C9.35028 18.8876 10.6252 19.4787 11.9065 20.0523C12.1624 20.1669 12.5621 20.4229 12.8594 20.3095C13.1212 20.2097 12.6549 19.595 12.5869 19.51C12.2089 19.0379 11.7597 18.4543 11.2455 18.1237C10.9945 17.9624 11.2121 18.4555 11.2275 18.5109C11.3445 18.9337 11.4564 19.3623 11.4921 19.8009C11.5062 19.974 11.5929 20.8367 11.2968 20.8991C10.8419 20.9951 10.323 18.9836 10.2111 18.6581C9.96816 17.9514 9.83273 17.236 9.63706 16.5144C9.50743 16.0363 9.46486 15.7319 9.94073 15.4788C10.9224 14.9567 11.4398 14.3225 12.0105 13.3989C12.2192 13.0611 11.9408 14.1913 11.8669 14.5815C11.751 15.193 11.7586 15.857 11.5662 16.4512C11.5421 16.5255 11.3167 17.0293 11.4635 16.7016C11.7343 16.0966 12.0299 15.4971 12.262 14.876C12.4449 14.3865 12.6563 13.9104 12.8419 13.423C12.9862 13.0441 12.7022 13.5596 12.6928 13.5774C12.5051 13.9351 12.3069 14.2889 12.1314 14.6528C11.8239 15.29 11.5298 15.9433 11.3294 16.6227C11.2598 16.8585 10.8564 17.731 10.9638 17.9647C10.9956 18.0338 11.0414 17.8334 11.0725 17.764C11.169 17.5484 11.2655 17.3328 11.3621 17.1173C11.6805 16.406 11.9918 15.7899 11.9325 14.9919C11.8884 14.3985 11.5628 13.859 11.3794 13.2952C11.2866 13.0097 11.2644 12.6367 11.2225 13.2673C11.2118 13.4284 11.0042 14.3257 10.7413 14.1951C10.4758 14.0633 10.5685 13.031 10.5568 12.7575C10.5365 12.2824 10.6194 11.8301 10.6853 11.3565C10.855 10.1382 10.7025 8.889 10.8628 7.68132C10.924 7.2197 10.7368 6.62822 10.6296 6.18427C10.5649 5.91625 10.6203 5.58455 10.5919 5.30166C10.5669 5.05255 10.5166 4.79654 10.5329 4.55067C10.5649 4.06816 10.2021 2.68549 11.2346 3.0675C12.3924 3.49589 13.651 3.95946 14.8742 4.12298C15.0862 4.15131 15.3253 4.2675 15.5303 4.31792C15.7913 4.38208 16.1033 4.40036 16.3478 4.50981C16.5859 4.61643 17.0362 4.83152 16.9564 5.16811C16.7814 5.90665 16.276 6.65936 15.8546 7.27196C14.9697 8.55817 13.9436 9.83782 13.3069 11.2598C13.2147 11.4658 12.3573 13.1813 12.1256 12.7635C11.5026 11.6401 11.7934 10.0407 12.0194 8.83905C12.0746 8.54547 12.0275 8.21089 12.096 7.93234C12.1765 7.60493 12.1015 7.3141 12.1714 6.99684C12.2863 6.4753 12.2655 5.87726 12.4675 5.37914C12.6897 4.83108 13.1051 5.00399 13.6149 5.10714C13.9624 5.17743 14.3449 5.23275 14.6738 5.36945C14.9881 5.50012 14.8449 5.81053 14.7581 6.08475C14.3367 7.41647 13.7175 8.58976 12.7873 9.6251C12.5742 9.86224 12.7557 9.65354 12.8523 9.43779C13.0933 8.89946 13.3073 8.36924 13.496 7.81101C13.7181 7.15396 13.6164 6.56844 13.686 5.91528C13.7279 5.52255 13.0501 4.87998 12.7886 4.66189C12.5171 4.43548 12.1426 4.32093 11.8202 4.17658" stroke="#DE5D65" stroke-width="2" stroke-linecap="round"/>
<path d="M20.3516 5.25574C20.3929 4.77449 19.2858 3.71806 19.0536 3.58292C18.4986 3.26001 17.9601 3.07985 17.3535 2.90767C16.5277 2.67327 15.8065 2.16851 14.9994 1.88036C13.5829 1.37465 12.0657 0.974797 10.5669 0.801922C9.7339 0.705832 8.88333 0.97906 8.04982 0.915294" stroke="#373737" stroke-linecap="round"/>
<path d="M8.02966 0.995393C7.81247 1.82483 8.49336 2.75789 8.69015 3.5944C9.03384 5.05534 9.04982 6.48731 8.89263 7.96628C8.80262 8.81318 8.77118 9.70429 8.71707 10.5573C8.66652 11.3541 8.55529 12.2045 8.58027 13.0003C8.60254 13.7098 8.48995 14.4138 8.35108 15.1085C8.27847 15.4718 7.89821 16.1969 8.09961 16.5194" stroke="#373737" stroke-linecap="round"/>
<path d="M20.3514 5.25577C19.9863 6.6498 18.7309 7.58899 18.0265 8.78188C17.612 9.48394 17.0948 10.1578 16.6517 10.8454C16.1976 11.5501 15.8455 12.3084 15.5291 13.0898C15.2816 13.701 15.092 14.3098 14.925 14.9473C14.7874 15.4729 14.5412 15.8938 14.3586 16.3955C14.1674 16.9211 13.9581 17.0814 13.8162 17.6235" stroke="#373737" stroke-linecap="round"/>
<path d="M14.0384 17.559C14.7066 17.7339 15.3441 17.88 16.0141 17.9795C16.5244 18.0552 17.043 17.9651 17.5549 18.0697C17.6007 18.0791 18.0422 18.023 18.019 18.1116C17.8997 18.5675 17.0176 19.0092 16.6773 19.2749C15.4499 20.2331 14.3717 21.5556 13.3194 22.6948C12.2081 23.8978 10.8514 24.9321 9.93028 26.3001C9.66226 26.6982 9.18169 26.9076 8.92368 27.3121C8.87546 27.3877 8.42061 28.2518 8.36289 27.8827C8.13575 26.4301 7.47905 25.0812 7.23287 23.635C7.0981 22.8433 6.66057 22.0791 6.43435 21.3077C6.22607 20.5974 5.99841 19.897 5.70209 19.214C5.45348 18.6411 5.06083 18.1571 4.79266 17.5979C4.52708 17.0441 4.14692 16.3889 3.72195 15.9338C3.61326 15.8174 2.98103 15.0911 3.4189 15.1883C3.9502 15.3061 4.47575 15.465 5.00218 15.6028C5.44719 15.7194 7.20756 16.4455 7.54663 16.0641" stroke="#373737" stroke-linecap="round"/>
<path d="M8.5896 2.19831C8.7242 2.19831 8.85664 2.20276 8.9888 2.18074C9.0043 2.17815 8.98456 2.64781 8.97373 2.69543C8.91423 2.95723 8.98778 2.90547 9.21978 2.98667C9.44913 3.06694 9.44825 3.24105 9.44825 3.46872C9.44825 3.7653 9.36616 4.05423 9.32272 4.34746C9.29918 4.50637 9.29461 4.54831 9.4583 4.54831C9.61666 4.54831 9.94039 4.45996 9.94537 4.67385C9.95206 4.96155 9.8112 5.14672 9.70936 5.40697C9.69494 5.44383 9.53709 5.72711 9.63906 5.71578C9.73205 5.70545 10.1189 5.51534 9.98554 5.75344C9.82859 6.0337 9.67003 6.31596 9.56374 6.61963C9.48358 6.84867 9.82981 6.75881 9.96796 6.74014C10.1242 6.71902 10.4129 6.62893 10.3973 6.86316C10.3829 7.07958 10.1752 7.23934 10.0583 7.40547C9.86148 7.68547 9.66712 7.9772 9.48842 8.26915C9.33708 8.51641 9.11472 8.8355 9.53864 8.78635C9.61529 8.77746 10.0052 8.68238 10.0709 8.76124C10.2061 8.92343 9.88406 9.4006 9.80477 9.52449C9.7441 9.61928 9.45239 9.94054 9.50851 10.0668C9.5543 10.1698 9.86781 9.99536 9.92277 9.97391C10.0451 9.92617 10.2713 9.87458 10.1764 10.0969C10.0388 10.4192 9.78675 10.7122 9.62902 11.0309C9.44001 11.4129 10.3877 11.1302 10.1764 11.5C10.4927 11.5 9.24346 12.4887 9.32272 12.5C9.63766 12.545 10.2516 11.9203 9.77966 12.7482C9.50255 13.2343 9.66044 13.5089 9.42315 14.0119C9.35734 14.1515 9.05677 14.1846 9.08922 14.1693C9.28953 14.0744 9.47497 13.9763 9.68928 13.9132C9.72391 13.903 9.93528 13.8102 9.97048 13.863C10.0568 13.9925 9.83453 14.2442 9.77213 14.3274C9.69318 14.4327 8.83576 15.599 8.96118 15.6129C9.11417 15.6299 9.28934 15.5042 9.42315 15.4497C9.67965 15.3452 9.95466 15.2485 10.2316 15.2212C10.9248 15.153 10.3967 15.6286 10.1663 15.9016C9.993 16.107 9.82193 16.3124 9.64158 16.5117C9.63295 16.5213 9.38442 16.8021 9.55872 16.7201C9.73745 16.636 9.87582 16.5134 10.0734 16.464C10.4038 16.3814 10.0335 16.6481 9.95039 16.7101C9.6581 16.928 9.31201 17.0561 8.9888 17.2197C8.81341 17.3085 8.27295 17.4854 8.46908 17.4984C8.60578 17.5075 8.7793 17.3885 8.90343 17.3428C8.98583 17.3124 9.24984 17.2926 9.16203 17.2926C8.65969 17.2926 8.16221 17.3124 7.66064 17.3352C7.45515 17.3446 7.45275 17.2663 7.20119 17.2474C6.72399 17.2113 6.29442 17.082 5.83789 16.9536C5.71015 16.9177 5.61036 16.8188 5.49392 16.7929C5.3838 16.7685 5.39873 16.6264 5.3006 16.6147C5.09499 16.59 5.78042 17.0963 5.8178 17.1218C6.89868 17.86 8.104 18.0059 9.388 18.0156C9.74887 18.0184 10.13 17.9986 10.4877 18.0608C10.6033 18.0809 10.0898 18.2504 10.086 18.2516C9.23033 18.5249 8.43081 18.7869 7.62047 19.1781C7.53844 19.2177 7.30504 19.3438 7.55017 19.3162C7.81261 19.2866 8.07157 19.209 8.33351 19.1705C8.36471 19.166 8.94612 19.1002 8.94109 19.1203C8.91103 19.2406 8.23595 19.4843 8.12261 19.5471C7.96868 19.6325 7.05967 20.1261 7.44221 19.5773C7.47318 19.5329 7.76449 19.1751 7.62047 19.1103C7.48271 19.0483 6.88504 19.1835 7.13842 19.1906C7.38487 19.1976 7.63253 19.1906 7.87907 19.1906C8.04118 19.1906 8.2731 19.1932 7.95188 19.1906C7.41916 19.1864 6.59997 19.1676 6.17934 18.7739C6.12026 18.7186 6.06895 18.4358 6.13415 18.6433C6.32983 19.2659 6.62744 19.8579 6.98276 20.4033C7.10415 20.5896 7.2551 20.7656 7.34932 20.9682C7.39826 21.0734 7.36923 20.9006 7.37192 20.8602C7.37332 20.8391 9.90195 19.3683 9.98554 19.5773C10.1108 19.8903 7.64056 21.3468 7.64056 21.6762C7.64056 22.0088 7.59402 22.2674 8.01214 22.1432C8.342 22.0452 8.66739 21.8339 8.95867 21.6561C9.12825 21.5526 9.36489 21.2947 9.57881 21.2896C9.66122 21.2876 9.40204 21.6687 9.39051 21.6863C9.19641 21.982 8.9525 22.2445 8.72517 22.5148C8.64955 22.6047 8.19851 23.0901 8.61722 22.8864C8.84281 22.7766 9.01479 22.5872 9.2474 22.4847C9.28252 22.4692 9.65395 22.3179 9.56877 22.4821C9.29949 23.0015 8.94343 23.4751 8.73271 24.0262C8.6688 24.1934 8.47113 24.908 8.88335 24.6288C9.06447 24.5061 9.24547 24.3337 9.4834 24.3426C9.58958 24.3465 9.06706 25.0242 9.01641 25.1108C8.99541 25.1468 8.83326 25.4423 8.95616 25.4598C9.03547 25.4711 9.16942 25.3293 9.23233 25.2916C9.37384 25.2067 9.6436 25.1108 9.35787 25.1108" stroke="black" stroke-opacity="0.1" stroke-width="2" stroke-linecap="round"/>
<path d="M8.81553 1.79158C9.19644 1.79158 9.60188 1.75202 9.98049 1.79409C10.265 1.8257 9.60342 2.66227 9.59635 2.75066C9.5836 2.91002 10.752 2.7837 10.8994 2.78581C11.3005 2.79154 10.5805 3.44157 10.5178 3.55408C10.293 3.95707 10.6435 3.64298 10.8843 3.83026C11.0069 3.92557 10.9202 4.18274 10.8642 4.2872C10.6153 4.7519 10.255 5.15028 10.0106 5.61786C9.97286 5.69009 9.74773 6.09598 9.88759 6.19281C10.008 6.27616 10.3286 6.13275 10.4625 6.12C10.7294 6.09458 11.1288 6.00764 11.3789 6.14009C11.6258 6.27078 11.4996 6.59921 11.3714 6.76274C11.203 6.97756 10.969 7.12663 10.7889 7.33015C10.6572 7.47903 10.7395 7.45387 10.8919 7.39292C10.9258 7.37934 11.1927 7.20882 11.2007 7.24479C11.2491 7.4627 10.7979 7.90957 10.691 8.07583C10.5435 8.30523 10.3112 8.57869 10.2667 8.85665C10.2361 9.04789 10.5515 8.97716 10.6684 8.97716C10.9384 8.97716 11.3463 8.88374 11.3463 9.25334C11.3463 10.2375 10.8128 10.9179 10.4374 11.7791C10.3504 11.9786 10.7367 11.7564 10.8291 11.7439C11.0792 11.7103 10.7871 12.1366 10.7437 12.1908C10.4814 12.5187 10.0846 12.8035 9.73193 13.0269C9.30159 13.2994 9.42629 12.9718 9.62899 12.7281C9.76094 12.5695 11.1783 11.2827 11.1103 11.8795C11.0088 12.7705 10.1722 13.3922 9.69176 14.0889C9.5698 14.2658 10.1041 14.0475 10.1562 14.0287C10.478 13.9122 10.8261 13.8132 11.163 13.75C11.9767 13.5974 11.3352 14.4341 11.0651 14.7065C10.9352 14.8376 10.7978 14.9621 10.6609 15.0857C10.653 15.0928 10.4303 15.254 10.5931 15.161C10.8554 15.0111 11.1264 14.8413 11.4266 14.7819C11.4909 14.7691 11.791 14.7058 11.8233 14.812C11.9175 15.1213 11.397 15.7059 11.2383 15.9192C11.19 15.9842 10.6707 16.4941 11.04 16.3435C11.2662 16.2513 11.5011 16.1214 11.743 16.0774C12.1962 15.995 11.2659 17.0566 11.2107 17.1118C10.9383 17.3842 10.6446 17.6519 10.3521 17.9027C10.1542 18.0722 10.786 17.605 11.03 17.5135C11.1376 17.4731 11.5199 17.3255 11.6426 17.393C11.8063 17.483 11.4183 18.0141 11.3764 18.0684C10.9723 18.5923 10.4453 19.0314 9.93027 19.4417C9.88438 19.4783 9.47131 19.8263 9.77963 19.6978C10.1228 19.5548 10.4267 19.3587 10.7839 19.2383C10.8314 19.2223 11.7029 18.9803 11.6777 19.0952C11.572 19.577 10.9233 20.0729 10.583 20.3757C10.3748 20.5611 10.1576 20.7272 9.93027 20.8879C9.85314 20.9424 9.61715 21.0647 9.60388 21.1841C9.59883 21.2296 9.68957 21.1513 9.72942 21.1289C9.83623 21.0688 9.94157 21.0077 10.0458 20.9431C10.4573 20.6879 10.8939 20.4893 11.3312 20.2828C11.3534 20.2723 11.8437 20.0139 11.8786 20.1045C11.9259 20.2276 11.2221 20.7653 11.1454 20.8376C10.903 21.0664 10.069 21.6144 10.3671 21.4653C10.6905 21.3036 10.99 21.1058 11.3212 20.9556C11.3714 20.9329 12.0595 20.588 11.9489 20.8477C11.7865 21.2286 11.3362 21.5159 11.04 21.7817C11.0067 21.8115 10.4511 22.3128 10.5956 22.339C10.6961 22.3573 10.8365 22.2707 10.9195 22.2336C11.1955 22.11 11.4696 21.9798 11.7581 21.8871C12.0593 21.7903 12.1509 21.7648 11.8961 22.0026C11.5705 22.3065 11.1763 22.5139 10.8693 22.8412C10.7009 23.0206 10.4333 23.2692 10.4374 23.5391C10.4395 23.6727 10.9954 23.3378 11.0726 23.3056C11.4652 23.1421 11.3316 23.3581 11.1203 23.5743C10.9035 23.7962 10.6546 23.9736 10.5178 24.2597C10.4683 24.3632 10.4906 24.2508 10.4851 24.202C10.4605 23.9803 8.52686 26.6539 8.37867 26.5C8.07588 26.1856 9.58615 23.0013 9.30762 22.6654C9.02509 22.3247 7.9735 23.2763 7.83892 22.8412C7.69419 22.3732 8.2224 20.6002 7.99704 20.1598C6.84066 21.1841 7.08127 19.0684 6.62621 18.5605C6.3541 18.2567 6.06802 17.977 5.92322 17.5989C5.79399 17.2614 5.71823 16.8491 5.51649 16.5494C5.49725 16.5208 5.17557 16.169 5.25537 16.3485C5.354 16.5704 5.7018 16.8544 5.86798 17.0264C6.35099 17.5263 6.94277 18.0015 7.64053 18.1361C8.19472 18.2431 8.80281 18.2003 9.3503 18.0759C9.75813 17.9832 10.2112 17.6541 10.6282 17.6541C10.7753 17.6541 9.92749 18.4258 9.87002 18.4776C9.34461 18.9509 8.85592 19.4483 8.37867 19.9689C8.23746 20.123 8.69624 19.6836 8.89085 19.6074C9.06087 19.5409 9.56576 19.3474 9.71184 19.5446C9.92038 19.8262 9.90014 20.4186 9.90014 20.7473C9.90014 21.1009 9.87896 21.5477 9.64907 21.8419C9.4606 22.0832 9.41012 21.7918 9.40554 21.6335C9.38439 20.904 9.40303 20.1715 9.40303 19.4417C9.40303 18.6104 9.42566 17.8095 9.52856 16.9863C9.59543 16.4513 9.48277 15.9048 9.5838 15.3744C9.63035 15.13 9.75925 14.9063 9.76457 14.6563C9.77276 14.2711 9.80976 13.8926 9.80976 13.5064C9.80976 12.6587 9.80976 11.8109 9.80976 10.9631C9.80976 10.2928 9.80976 9.62241 9.80976 8.95206C9.80976 8.26641 9.90014 7.58776 9.90014 6.89831C9.90014 6.16348 9.99797 5.3467 9.8901 4.61861C9.84295 4.30033 9.82779 3.98363 9.77461 3.66455C9.72818 3.38595 9.5838 3.16495 9.5838 2.8762" stroke="black" stroke-opacity="0.05" stroke-width="2" stroke-linecap="round"/>
</svg>
