<svg width="19" height="29" viewBox="0 0 19 29" fill="none" xmlns="http://www.w3.org/2000/svg">
<path d="M4.64605 12.4587C4.7805 12.4288 3.28496 12.8375 3.38036 12.7421C3.5692 12.5533 3.78597 12.3364 3.99873 12.201C4.22607 12.0564 4.35183 11.5756 4.41099 11.3336C4.5376 10.8156 4.71025 10.1871 4.93059 9.69746C5.22336 9.04688 5.66492 8.13615 5.66492 7.4172C5.66492 7.11603 5.91494 6.67668 6.0514 6.40375C6.2234 6.05975 6.52966 5.56029 6.58819 5.17988C6.67122 4.64017 6.90167 4.17672 6.90167 3.62535C6.90167 2.98472 7.68041 4.03828 7.79488 4.20508C8.03778 4.55902 8.32344 4.87566 8.5292 5.25288C9.21017 6.50132 10.3724 7.5656 11.6125 8.26317C11.9586 8.45787 12.2132 8.74968 12.6217 8.86008C13.0242 8.96886 12.2046 9.76715 12.5444 10.0024C12.7788 10.1646 11.5051 10.7023 14.6142 9.77047C13.2014 10.7753 14.7506 10.2325 14.1676 10.3459C13.5423 10.4675 12.7997 10.4661 12.1579 10.4661C11.9203 10.4661 11.7282 10.6386 11.5051 10.7023C11.0821 10.8232 11.1663 11.8982 11.2346 12.2053C11.3072 12.5318 11.5235 12.8113 11.5395 13.1544C11.5564 13.5182 11.7362 13.9807 11.853 14.331C12.0884 15.0372 12.4683 15.7283 12.6217 16.4567C12.7695 17.1588 12.9093 18.0149 13.2014 18.6639C13.3866 19.0754 13.5551 19.5328 13.6866 19.9565C13.8574 20.5069 14.2199 20.9764 14.3265 21.5626C14.3846 21.8823 14.7262 22.3462 14.9234 22.6018C15.1614 22.9103 15.405 23.2895 15.6792 23.5637C15.9506 23.8351 16.1441 24.1282 16.392 24.3968C16.5113 24.526 16.7627 24.8301 16.7914 25.0023C16.9227 25.79 15.6221 25.786 15.0909 25.8568C14.8148 25.8937 14.5895 26.0735 14.3222 26.1403C14.1698 26.1784 14.0108 26.1365 13.8584 26.1746C13.4436 26.2783 12.9718 26.4356 12.5444 26.4623C11.7903 26.5095 11.094 26.7758 10.307 26.7758C9.50306 26.7758 8.7159 26.8531 7.90653 26.8531C7.48932 26.8531 6.59248 27.0189 6.59248 26.428C6.59248 26.2347 6.59248 26.0415 6.59248 25.8483C6.59248 25.6115 6.70016 25.3554 6.48083 25.5434C6.35435 25.6518 6.3547 26.2122 6.26612 26.3893C6.12305 26.6755 6.21927 25.5543 6.24464 25.4274C6.34841 24.9086 6.59248 24.4851 6.59248 23.9545C6.59248 23.0188 7.13356 22.092 7.13356 21.1288C7.13356 20.8967 7.1316 20.4573 7.27098 20.2657C7.38561 20.1081 7.24996 19.7397 7.29245 19.5485C7.40793 19.0289 7.36545 18.4681 7.36545 17.9253C7.36545 17.6233 7.36545 17.3212 7.36545 17.0192C7.36545 16.7073 7.21086 16.436 7.21086 16.1475C7.21086 15.6685 7.27493 15.1383 7.13356 14.6788C7.04361 14.3865 7.0918 14.1316 7.05197 13.8329C7.01384 13.5469 6.90167 13.3359 6.90167 13.0341C6.90167 12.5855 6.65775 11.8424 6.1287 11.8575C5.84958 11.8655 5.64923 12.1667 5.39438 12.1667C5.23363 12.1667 5.03258 12.2759 4.89195 12.3384C4.73093 12.41 4.39067 12.6348 4.43675 12.3814C4.59241 11.5253 5.51413 10.8556 5.89681 10.0797C6.21631 9.43178 6.28284 8.67276 6.47654 7.98405C6.61889 7.47788 6.7083 6.87575 6.74708 6.35222C6.77029 6.03881 6.8505 6.31868 6.91026 6.45528C7.12602 6.94845 7.3888 7.36449 7.70899 7.7951C8.15545 8.39551 8.64185 8.72295 9.31506 9.01467C9.76252 9.20857 10.0625 9.61403 10.4917 9.80912C10.6964 9.90218 10.3948 9.76135 10.3457 9.71894C9.95523 9.38207 9.5378 8.87366 9.23776 8.45642C8.78055 7.82061 7.53641 5.83026 8.01389 6.45099C8.39686 6.94886 8.87247 7.37019 9.34082 7.78651C9.63516 8.04814 10.065 8.26825 10.3027 8.58525C10.4446 8.77445 10.5854 8.89069 10.7708 9.04044C10.9782 9.20795 11.3104 9.32665 11.488 9.50422C11.9104 9.92662 11.356 9.9972 10.9641 10.0024C9.56036 10.0208 8.15521 10.0024 6.75137 10.0024C6.47104 10.0024 6.00152 9.932 5.77657 10.157C5.57843 10.3551 6.25513 10.7255 6.352 10.7753C6.88984 11.0518 7.53834 11.4009 8.14272 11.4925C8.43773 11.5372 8.0376 11.176 8.00101 11.1318C7.72145 10.7937 7.44412 10.4482 7.23233 10.0625C7.14873 9.91021 6.71706 9.1583 6.96179 8.98032C7.33783 8.70683 8.63334 10.3308 8.86845 10.5821C9.379 11.1278 9.79493 11.7254 10.2684 12.3041C10.582 12.6874 10.7453 12.9479 10.4144 13.3734C9.73177 14.251 9.51866 15.0413 9.37518 16.1174C9.3227 16.511 9.11502 15.3657 9.02305 14.9794C8.87888 14.3739 8.60062 13.771 8.5335 13.1501C8.52509 13.0723 8.52491 12.5204 8.52491 12.8795C8.52491 13.5424 8.50007 14.2103 8.54209 14.8721C8.57519 15.3935 8.57675 15.9145 8.6065 16.4352C8.62963 16.84 8.67825 16.2534 8.6795 16.2334C8.7047 15.8301 8.74097 15.4262 8.75251 15.0224C8.77271 14.3152 8.77423 13.5988 8.6795 12.8967C8.64663 12.6531 8.65837 11.6919 8.46479 11.5225C8.40753 11.4724 8.44761 11.6741 8.44761 11.7501C8.44761 11.9863 8.44761 12.2225 8.44761 12.4587C8.44761 13.238 8.41526 13.9276 8.79545 14.6316C9.07817 15.1552 9.59578 15.5146 9.99355 15.9542C10.195 16.1768 10.3676 16.5082 10.1481 15.9156C10.0921 15.7642 9.9149 14.8603 10.2083 14.8721C10.5044 14.8839 10.8417 15.864 10.9641 16.1088C11.1767 16.5342 11.2859 16.9808 11.4193 17.4401C11.7622 18.6214 12.4119 19.6991 12.7591 20.8669C12.8918 21.3133 13.3043 21.7766 13.5836 22.138C13.7522 22.3562 13.8372 22.6815 13.9786 22.9281C14.1032 23.1453 14.2538 23.3584 14.3394 23.5895C14.5073 24.0429 15.4035 25.1567 14.305 25.2299C13.0732 25.312 11.7351 25.4032 10.5518 25.7538C10.3468 25.8145 10.0811 25.8062 9.87331 25.844C9.60893 25.892 9.31668 26.0029 9.04881 26.0029C8.7879 26.0029 8.28903 25.9905 8.22431 25.6507C8.08229 24.9051 8.23599 24.0116 8.37031 23.2803C8.65234 21.7448 9.06599 20.1575 9.06599 18.5995C9.06599 18.3739 9.14758 16.4577 9.52977 16.7444C10.5574 17.5151 10.9456 19.0937 11.2303 20.2829C11.2999 20.5734 11.4796 20.8595 11.5309 21.1417C11.5912 21.4734 11.7786 21.7082 11.8444 22.0263C11.9526 22.5493 12.216 23.0867 12.2352 23.6238C12.2563 24.2149 11.8065 24.2268 11.299 24.341C10.9532 24.4188 10.5815 24.5246 10.2254 24.5342C9.88513 24.5434 9.88898 24.2016 9.85614 23.9158C9.69663 22.5282 9.78236 21.2043 10.2083 19.8792C10.3058 19.5757 10.2254 19.8404 10.2254 20.0767C10.2254 20.6666 10.2469 21.2379 10.3027 21.8245C10.3685 22.515 10.7006 23.0078 10.9039 23.6324C11.0262 24.008 11.9074 24.3175 12.2352 24.4097C12.5755 24.5054 12.9641 24.4569 13.3173 24.4569" stroke="#5D6ADE" stroke-width="2" stroke-linecap="round"/>
<path d="M5.08887 26.9585C5.24775 27.4146 6.68988 27.9265 6.9571 27.9549C7.59561 28.0228 8.16065 27.9672 8.78468 27.8765C9.63419 27.753 10.4987 27.919 11.3531 27.8522C12.8525 27.735 14.4007 27.4799 15.8393 27.0253C16.6388 26.7726 17.3035 26.1756 18.0903 25.8933" stroke="#373737" stroke-linecap="round"/>
<path d="M18.0768 25.8116C17.936 24.9658 16.9333 24.3925 16.4119 23.7094C15.5012 22.5164 14.9015 21.216 14.4406 19.8019C14.1767 18.9922 13.8413 18.166 13.5421 17.3653C13.2627 16.6175 13.0167 15.7958 12.6687 15.0797C12.3585 14.4412 12.1735 13.7526 12.0164 13.0619C11.9343 12.7007 11.985 11.8835 11.6694 11.6714" stroke="#373737" stroke-linecap="round"/>
<path d="M5.08906 26.9585C4.85258 25.537 5.61464 24.1668 5.77007 22.7902C5.86155 21.9801 6.05826 21.1537 6.18167 20.3451C6.30814 19.5163 6.31967 18.6804 6.28917 17.8379C6.26531 17.1789 6.18962 16.5457 6.08147 15.8957C5.99231 15.3597 6.04508 14.8749 6.00669 14.3424C5.96647 13.7846 6.09196 13.5528 6 13" stroke="#373737" stroke-linecap="round"/>
<path d="M5.82364 13.1495C5.14227 13.2629 4.50075 13.39 3.84857 13.5731C3.35187 13.7125 2.91537 14.0066 2.40545 14.1203C2.35978 14.1304 1.97974 14.362 1.96473 14.2718C1.88739 13.8069 2.51192 13.0433 2.71396 12.6617C3.44269 11.2856 3.88632 9.63803 4.3813 8.16822C4.90399 6.61613 5.71965 5.1178 6.00131 3.49275C6.08327 3.0199 6.43634 2.63242 6.50654 2.15783C6.51966 2.06912 6.58171 1.09459 6.7852 1.40786C7.58607 2.64081 8.73667 3.60367 9.55228 4.823C9.99881 5.49054 10.7104 6.00923 11.2321 6.62089C11.7124 7.18402 12.2064 7.7303 12.7559 8.23252C13.217 8.65387 13.7731 8.93519 14.2464 9.33596C14.7151 9.73286 15.3298 10.1756 15.9036 10.4172C16.0504 10.4791 16.9242 10.8836 16.4848 10.9739C15.9518 11.0834 15.4072 11.1532 14.8704 11.2425C14.4166 11.318 12.5132 11.3746 12.3596 11.8612" stroke="#373737" stroke-linecap="round"/>
<path d="M6.06708 5.25C6.19574 5.25 6.32441 5.25 6.45307 5.25C6.68029 5.25 6.42883 5.39162 6.34122 5.4715C6.19997 5.60029 6.12381 5.75511 6.01006 5.90135C5.92474 6.01105 6.28783 5.99776 6.32587 6.00004C6.57168 6.01479 6.27127 6.41405 6.21621 6.48252C6.17751 6.53065 5.6397 7.11673 5.64382 7.1229C5.6797 7.17673 5.99211 7.01519 5.98813 7.16238C5.98078 7.43457 5.58775 7.69677 5.44205 7.90803C5.30636 8.10478 5.48421 8.00167 5.58899 8.06155C5.76829 8.16401 5.16976 8.70898 5.10212 8.77211C5.05745 8.8138 4.5322 9.3512 4.69421 9.29845C4.7877 9.26801 5.05362 9.07464 5.03852 9.26336C5.01479 9.55995 4.73779 9.76526 4.5692 9.98709C4.44365 10.1523 4.07685 10.5707 4.50999 10.4608C4.52221 10.4577 4.6706 10.3928 4.65034 10.4345C4.5736 10.5925 4.42639 10.7129 4.31041 10.8402C4.26588 10.8891 3.81608 11.3537 3.92224 11.4301C4.00296 11.4883 4.15801 11.433 4.2512 11.4477C4.43239 11.4763 3.86123 12.0151 3.83451 12.0376C3.80159 12.0654 3.18516 12.5513 3.31475 12.5837C3.36141 12.5954 3.81187 12.497 3.75995 12.61C3.73431 12.6658 3.40799 13.0905 3.4266 13.0969C3.52836 13.1321 3.7115 13.0084 3.79065 12.9697C4.1391 12.7991 4.48546 12.6266 4.81263 12.417C5.08356 12.2435 5.86242 11.6921 5.64601 11.9302C5.46986 12.1239 5.11808 12.2408 4.87843 12.3271C4.84421 12.3394 4.93907 12.2861 4.97273 12.2723C5.14226 12.2029 5.30908 12.1272 5.47933 12.0596C5.56457 12.0257 6.2112 11.7299 6.29517 11.8512C6.44748 12.0712 5.87122 12.4686 5.76005 12.5442C5.62037 12.6393 4.97442 13.0773 5.5232 12.8842C5.78867 12.7908 6.1807 12.6084 6.47061 12.678C6.71255 12.7361 6.28182 13.251 6.22499 13.325C6.05699 13.5437 6.08335 13.5004 6.36096 13.5004C6.58487 13.5004 6.66801 13.5173 6.65922 13.7548C6.65039 13.9932 6.47415 14.0402 6.35219 14.211C6.26148 14.338 6.72258 14.1857 6.78642 14.2198C7.07631 14.3744 6.22684 14.8821 6.70747 14.8821C6.82829 14.8821 7.04604 14.8387 7.05398 15.0093C7.064 15.2247 6.96941 15.4214 6.81493 15.5707C6.61988 15.7593 6.55824 15.8369 6.8873 15.7505C7.08458 15.6988 7.09171 15.7781 7.0452 15.9874C7.03459 16.0352 6.79618 16.4492 6.82809 16.4545C7.00786 16.4845 7.2403 16.3427 7.43119 16.3427C7.56707 16.3427 7.43035 16.5715 7.40049 16.619C7.35242 16.6955 6.89941 17.146 6.9838 17.1629C7.10111 17.1864 7.33319 17.009 7.42242 17.1388C7.52737 17.2914 7.25391 17.5901 7.18118 17.7068C7.00411 17.9909 7.13705 17.8655 7.36101 17.8735C7.49049 17.8781 7.3325 19.3963 7.33031 19.5885C7.32985 19.6286 7.36285 19.8729 7.28206 19.8955C7.23395 19.909 7.20804 19.901 7.1724 19.9437C7.13821 19.9848 6.99239 20.0762 6.97722 19.9701C6.95808 19.8361 7.0627 19.6627 7.17679 19.6016C7.31212 19.5291 7.69841 19.3219 7.61102 19.4481C7.47946 19.6381 7.20589 19.7601 7.00134 19.8472C6.7643 19.9483 7.13835 19.6137 7.19872 19.5797C7.38667 19.4737 7.99681 19.2775 7.78208 19.299C7.51539 19.3256 7.2419 19.6127 7.09784 19.8122C6.99675 19.9521 6.80143 20.1064 6.74256 20.2683C6.70508 20.3714 6.94527 20.327 6.99696 20.3385C7.12791 20.3676 7.10761 20.5048 7.05836 20.6061C7.01229 20.7008 6.67798 21.2756 6.73378 21.2377C7.0002 21.0565 7.1987 20.8092 7.51891 20.7113C7.90865 20.5922 7.39606 21.2515 7.34346 21.3166C7.17966 21.5196 7.00442 21.7151 6.83467 21.9131C6.81193 21.9397 6.61393 22.1417 6.63509 22.139C6.76452 22.1229 6.89183 22.0394 7.00573 21.9833C7.26092 21.8577 7.52351 21.7493 7.78647 21.6412C8.05402 21.5312 8.10577 21.5937 7.90051 21.8342C7.46059 22.3497 6.82563 22.6786 6.40043 23.1983C6.19486 23.4496 6.9932 22.9322 7.29741 22.8189C7.55552 22.7227 7.81853 22.6348 8.08034 22.5491C8.13499 22.5313 8.37233 22.4525 8.28211 22.6062C8.03572 23.0257 7.50437 23.3334 7.15047 23.6588C7.04334 23.7574 7.03417 23.7856 7.1724 23.7071C7.45355 23.5473 7.73621 23.414 8.03648 23.2926C8.09392 23.2694 8.91189 22.9853 8.79529 23.1193C8.42419 23.5461 7.83707 23.7797 7.38075 24.0975C7.37693 24.1001 7.13033 24.3067 7.17021 24.3014C7.29987 24.2841 7.45679 24.1358 7.57593 24.0843C7.74429 24.0115 7.96424 23.9216 8.15272 23.933C8.28488 23.941 7.75113 24.2571 7.71629 24.2773C7.43992 24.4374 7.16511 24.5991 6.89169 24.7642C6.80196 24.8183 6.6995 24.88 6.60658 24.9308C6.56986 24.9509 6.49254 25.0253 6.49254 24.9835C6.49254 24.9111 6.82719 24.7131 6.87414 24.6808C7.17514 24.4739 7.49418 24.2934 7.79963 24.0931C8.25227 23.7963 7.61637 24.0528 7.46189 24.0997C7.32392 24.1415 6.46513 24.4589 6.39166 24.1896C6.31459 23.907 6.49559 23.6649 6.61536 23.4308C6.69033 23.2842 6.80532 22.8071 6.72063 22.9483C6.57169 23.1965 6.34925 23.3985 6.22499 23.6588C6.1664 23.7816 6.23445 23.1842 6.24692 23.1128C6.29339 22.8466 6.36414 22.5259 6.55395 22.3189C6.61224 22.2553 6.5667 22.492 6.55614 22.5776C6.50603 22.9841 6.42527 23.3876 6.35219 23.7904C6.29416 24.1102 6.2263 24.4278 6.16358 24.7466C6.13627 24.8854 6.12781 25.0761 6.05392 25.2028C5.99016 25.3121 6.2979 24.7625 6.25788 24.8826C6.15081 25.2038 5.83834 25.4609 5.64162 25.7291C5.55532 25.8468 5.58871 25.8692 5.7118 25.7993C6.01513 25.627 6.30159 25.4384 6.61974 25.2905C6.91427 25.1536 7.22042 25.0519 7.52988 24.955C7.53415 24.9536 7.85673 24.8683 7.8413 24.8826C7.37946 25.3089 6.73034 25.6519 6.16797 25.9221C6.05627 25.9758 5.74833 26.148 5.81707 26.0449C5.85677 25.9854 6.00857 25.9303 6.06708 25.8958C6.39999 25.6998 6.85165 25.4408 7.25574 25.5054C7.37495 25.5245 6.78192 25.9866 6.71624 26.0362C6.56362 26.1513 6.41231 26.2678 6.25788 26.3805C6.23133 26.3998 6.08137 26.5053 6.21183 26.4792C6.55997 26.4095 6.86991 26.2031 7.21626 26.1195C7.3376 26.0902 7.2292 26.2049 7.19872 26.2401C7.03363 26.431 6.82587 26.5794 6.64606 26.7555C6.54121 26.8582 6.16945 27.1435 6.54518 27.0538C7.21289 26.8942 7.80759 26.5331 8.49265 26.4134C8.58232 26.3977 9.3514 26.2017 9.15715 26.455C8.97395 26.694 8.71511 26.9188 8.4444 27.0494C8.30347 27.1173 8.4553 27.0768 8.51019 27.0538C8.75895 26.9495 9.00024 26.8203 9.2383 26.6941C9.46547 26.5737 9.67782 26.4278 9.905 26.3081C9.92648 26.2968 10.3731 26.1285 10.1484 26.2204C9.46879 26.4984 8.6334 26.6569 7.9049 26.5011C7.24221 26.3593 7.56605 25.9346 7.91367 25.6195C8.32154 25.2497 8.80522 24.9337 9.2712 24.6413C9.31278 24.6153 9.52955 24.5017 9.33041 24.5251C8.95966 24.5687 8.60065 24.7042 8.23386 24.7729C8.05335 24.8068 7.60672 24.9345 7.86981 24.6326C8.09433 24.3749 8.39211 24.0333 8.70757 23.8913C8.75097 23.8718 8.95837 23.8153 8.78214 23.9132C8.56641 24.0331 8.34279 24.1407 8.12421 24.2554C7.96937 24.3366 7.80972 24.4447 7.64392 24.5032C7.62009 24.5116 7.8068 24.2843 7.83472 24.2554C8.08797 23.9929 8.56204 23.7796 8.93565 23.8496C9.28672 23.9155 8.63527 24.7038 8.56721 24.7817C8.38998 24.9847 8.19372 25.1764 8.00139 25.3651C7.92606 25.439 7.66409 25.5679 7.76893 25.58C7.90964 25.5962 8.09341 25.5264 8.22509 25.4923C8.58067 25.4002 8.9295 25.2895 9.29313 25.2313C9.30386 25.2296 9.75297 25.1381 9.73832 25.2357C9.7179 25.3719 9.47935 25.5447 9.39182 25.626C9.16048 25.8411 8.91891 26.0424 8.65932 26.2226C8.5342 26.3094 8.2002 26.4444 8.12421 26.5888C8.1123 26.6114 8.32366 26.5589 8.32597 26.5581C8.4872 26.5044 8.64153 26.4313 8.79968 26.3695C8.82965 26.3578 9.15104 26.2087 9.18128 26.2774C9.22312 26.3725 8.84049 26.5932 8.7931 26.6283C8.66126 26.726 8.52999 26.8344 8.4137 26.9507C8.32256 27.0418 8.70315 26.9514 8.7295 26.9441C8.97835 26.8755 9.22372 26.7909 9.47077 26.716C9.62801 26.6684 10.007 26.4776 10.1791 26.5384C10.3717 26.6063 9.7222 27.0863 9.6813 27.1152C9.58975 27.1798 9.56722 27.1932 9.47515 27.2489C9.44532 27.267 9.35841 27.2866 9.38743 27.306C9.43955 27.3407 9.72648 27.1632 9.77341 27.1415C10.0672 27.0055 10.4517 26.9222 10.7779 26.9222C10.9842 26.9222 10.5486 27.3008 10.5147 27.3301C10.2919 27.5221 10.4701 27.4267 10.6287 27.3345C10.6758 27.3071 11.391 26.8953 11.3875 26.9573C11.3843 27.016 11.1339 27.131 11.0893 27.159C10.9961 27.2174 10.6858 27.3347 10.7866 27.2906C10.8597 27.2587 11.1595 27.1712 11.1595 27.1195" stroke="black" stroke-opacity="0.1" stroke-linecap="round"/>
<path d="M6.84105 4.22114C6.91839 4.0063 7.07666 3.93536 7.25923 3.82125C7.36102 3.75763 7.20394 4.16057 7.19128 4.20023C7.09488 4.50226 7.0019 4.81327 6.89071 5.10978C6.73633 5.52144 6.63577 5.89581 6.36013 6.25457C6.14363 6.53636 5.8533 6.82286 5.73285 7.16412C5.68087 7.31141 5.82652 7.1292 5.8374 7.11708C5.99255 6.94413 6.14637 6.76672 6.31831 6.61003C6.37446 6.55887 7.15473 5.94191 7.20435 6.07423C7.25363 6.20564 7.10718 6.50017 7.06582 6.61003C6.9283 6.97531 6.75958 7.33061 6.60059 7.68686C6.4079 8.11863 6.18157 8.53876 6.01252 8.98062C5.95061 9.14242 5.79379 9.49086 5.86092 9.68108C5.9086 9.81617 6.55314 9.26076 6.59536 9.23153C6.7829 9.1017 6.98553 8.9969 7.18605 8.88914C7.27164 8.84314 7.57916 8.60962 7.6931 8.64869C7.87351 8.71054 6.94548 9.95362 6.87764 10.0339C6.68752 10.259 6.48163 10.4873 6.25036 10.6717C6.09557 10.795 6.21891 10.6858 6.2765 10.6351C6.68079 10.279 7.11475 9.97431 7.57287 9.68892C8.09288 9.36499 7.67252 9.91894 7.53367 10.1123C7.32733 10.3997 7.09364 10.6384 6.82798 10.8703C6.68461 10.9955 6.50008 11.134 6.41241 11.3094C6.37717 11.3799 6.57481 11.3033 6.64502 11.2676C6.90439 11.1355 7.16159 11.0109 7.43173 10.9017C7.58088 10.8413 8.50957 10.3713 8.35697 10.8494C8.20707 11.3191 7.91289 11.7666 7.66174 12.1876C7.62023 12.2572 7.22167 12.8664 7.5206 12.7521C7.79372 12.6477 8.02505 12.3061 8.33606 12.313C8.60695 12.3191 8.32212 12.9707 8.27856 13.0553C8.04511 13.5087 7.74124 13.9214 7.49185 14.3648C7.32495 14.6615 7.52722 14.548 7.71662 14.451C7.95661 14.3281 8.36713 14.0771 8.64447 14.0903C8.91183 14.1031 8.32219 14.8876 8.27856 14.9424C8.2378 14.9936 7.79028 15.563 7.91265 15.5514C8.21402 15.5227 8.48129 15.2409 8.783 15.1672C9.17632 15.071 9.05456 15.516 8.97118 15.7552C8.79245 16.2681 8.50729 16.7324 8.28379 17.2241C8.18223 17.4476 8.09706 17.6463 8.40402 17.5142C8.49867 17.4735 9.10101 17.1344 9.18289 17.2163C9.28773 17.3211 8.73764 18.3227 8.71243 18.3767C8.51263 18.8051 8.2634 19.2476 8.14788 19.7097C8.14071 19.7384 8.08077 19.9447 8.16356 19.9293C8.26598 19.9102 8.36651 19.804 8.44584 19.7463C8.61922 19.6202 8.79811 19.5437 9.00516 19.4902C9.12632 19.4588 9.32927 19.3739 9.45732 19.4013C9.47388 19.4048 9.48273 19.4654 9.49653 19.4562C9.52106 19.4398 9.41259 18.8624 9.39982 18.8028C9.33254 18.4888 9.27235 18.1791 9.21948 17.8618C9.16978 17.5636 9.19525 17.2599 9.1463 16.9601C9.10596 16.7131 9.16614 16.3872 9.0888 16.1551C8.97575 15.816 9.05401 16.8776 9.13062 17.2267C9.32997 18.1354 9.61245 19.0354 9.85199 19.9345C10.1766 21.1531 10.4496 22.3753 10.7432 23.5988C10.7771 23.74 10.84 23.9174 10.84 24.0641C10.84 24.1217 10.831 23.9472 10.8086 23.8942C10.7763 23.8178 10.7214 23.8022 10.6544 23.7687C10.5253 23.7042 10.3321 23.7518 10.1918 23.7452C9.84527 23.729 9.75389 23.3764 9.61676 23.1179C9.38464 22.6805 9.24468 22.1939 9.13062 21.7118C9.05987 21.4127 9.02183 21.1048 8.96857 20.8022C8.94936 20.6931 8.96177 20.4505 8.90061 20.3527C8.86469 20.2952 8.85073 20.4795 8.83789 20.5461C8.77291 20.8828 8.69893 21.2167 8.62879 21.5523C8.53248 22.0133 8.46378 22.4745 8.44584 22.9454C8.43775 23.1576 8.39682 23.4435 8.45106 23.6537C8.50138 23.8487 9.29592 23.2743 9.39721 23.2277C9.49156 23.1843 10.6423 22.6954 10.6936 22.8879C10.7806 23.2142 10.5468 23.6942 10.4061 23.97C10.385 24.0113 9.89761 24.7923 10.2388 24.6548C10.6264 24.4985 10.8838 24.1832 11.3261 24.132C11.6619 24.0932 11.5562 24.4318 11.4777 24.6652C11.4232 24.8271 10.9789 25.3942 11.0856 25.5591C11.1159 25.6058 11.3327 25.4128 11.347 25.4023C11.504 25.2865 11.6687 25.1935 11.8541 25.1304C12.4084 24.942 11.9477 25.7682 11.8279 25.7682" stroke="black" stroke-opacity="0.05" stroke-width="2" stroke-linecap="round"/>
</svg>
