<svg width="48" height="41" viewBox="0 0 48 41" fill="none" xmlns="http://www.w3.org/2000/svg">
<path d="M23.8391 28.5287C22.5722 28.5287 21.659 27.936 20.5813 27.2976C19.6927 26.7712 18.7668 26.1297 18.524 25.0549C18.195 23.5991 18.6375 22.1763 19.8887 21.3563C21.6341 20.2123 23.9331 20.3982 25.5527 21.7241C26.2526 22.2972 26.584 23.2107 26.7481 24.0639C26.9692 25.2136 26.8238 25.8999 25.9631 26.7407C23.1763 29.4633 19.7868 26.3652 17.9288 24.166C15.8196 21.6695 18.345 18.8833 20.925 18.1584C24.0564 17.2784 27.6817 17.6022 29.893 20.1711C30.6616 21.064 31.3272 21.9814 31.4014 23.2005C31.5144 25.0578 30.6976 26.6845 29.6878 28.2018C28.6362 29.7819 26.4176 31.0087 24.5676 31.3589C23.449 31.5706 22.2952 31.5755 21.161 31.5581C19.9398 31.5394 18.7003 31.4948 17.5543 31.0319C15.7767 30.3139 13.839 29.08 12.6137 27.5888C12.0261 26.8736 11.6189 26.0351 11.1874 25.2235C10.663 24.2371 10.178 23.3149 10.0485 22.189C9.75056 19.6003 10.02 16.4755 12.2084 14.705C13.2149 13.8907 14.6614 13.6127 15.8972 13.3768C17.298 13.1093 18.6977 12.836 20.0939 12.5492C21.2771 12.3061 22.4614 12.2529 23.6647 12.2529C25.1594 12.2529 26.4134 12.687 27.7895 13.2439C30.4328 14.3137 33.0043 15.7065 35.1056 17.6577C35.5549 18.075 35.7947 18.5117 36.0342 19.0728C36.3582 19.832 36.7726 20.5684 37.0346 21.3512C37.4233 22.5122 37.5828 23.8337 37.599 25.0549C37.62 26.6487 37.5785 28.1555 37.1885 29.7088C36.7724 31.3664 35.9599 32.7732 34.926 34.1277C32.8199 36.887 28.8393 37.1258 25.6861 37.6782C23.89 37.9928 22.0373 38 20.217 38C18.5806 38 17.4004 37.7438 16.0049 36.8506C13.6312 35.3312 11.546 33.469 9.53541 31.507C8.99546 30.9801 8.60997 30.2873 8.18097 29.6731C7.64746 28.9091 7.1154 28.1484 6.66236 27.3333C5.94727 26.0468 5.47873 24.6603 5.2361 23.2107C4.98797 21.7283 5.0001 20.2865 5.0001 18.7867C5.0001 18.1405 5.13011 17.546 5.34897 16.9425C5.57338 16.3237 5.69246 15.5892 6.02105 15.0166C6.75633 13.7354 7.36202 12.4474 8.22715 11.2414C9.03712 10.1123 10.257 9.32624 11.3413 8.48276C11.6472 8.24484 12.0224 8.13799 12.3418 7.92082C12.754 7.64051 13.1321 7.39236 13.5936 7.1954C14.3024 6.89294 15.096 6.64644 15.8459 6.45977C17.2208 6.11751 18.5992 6 20.0118 6C20.7181 6 21.4244 6 22.1307 6C22.9643 6 23.7471 6.25223 24.5779 6.27586C25.5302 6.30295 26.5997 6.47376 27.5279 6.69476C28.4855 6.92279 29.5127 7.11926 30.4317 7.47637C31.6876 7.96439 32.8786 8.65171 34.1256 9.17241C34.6296 9.38285 35.2324 9.6357 35.6596 9.97446C36.1124 10.3334 36.6617 10.6356 37.0808 11.0166C37.4708 11.3712 37.9009 11.7842 38.2454 12.1814C38.6628 12.6627 38.8615 13.103 39.1227 13.6833C39.3677 14.2275 39.5842 14.9653 40 15.3793" stroke="#002A7D" stroke-opacity="0.01" stroke-width="3" stroke-linecap="round"/>
<path d="M20 28.782C19.8533 29.2674 18.8229 28.8107 18.5691 28.6707C18.0019 28.3581 17.6579 27.7637 17.3022 27.2342C16.7272 26.3779 16.1128 25.5313 15.6456 24.6049C14.9522 23.2301 14.9568 21.635 15.0353 20.1204C15.0724 19.4043 15.1389 18.5923 15.5687 18" stroke="#D1E1FF" stroke-opacity="0.1" stroke-width="10" stroke-linecap="round"/>
<path d="M20 13.519C20.5635 13.4065 21.0447 13.1448 21.6332 13.0914C22.834 12.9824 24.1359 12.9534 25.3333 13.1021C26.3939 13.2337 27.11 13.5558 28 14" stroke="#D1E1FF" stroke-opacity="0.1" stroke-width="10" stroke-linecap="round"/>
<path d="M30 27C30 28.0065 28.8255 29.0643 28.0753 29.6587C26.8809 30.6051 25.4757 31.4894 24 32" stroke="#D1E1FF" stroke-opacity="0.1" stroke-width="10" stroke-linecap="round"/>
<path d="M35.4269 21C36.1321 22.7374 36.3888 24.4895 35 26" stroke="#D1E1FF" stroke-opacity="0.1" stroke-width="10" stroke-linecap="round"/>
<path d="M16 16C12.1177 18.1421 11.8556 21.884 12.0439 25.3815C12.1757 27.8288 12.7301 30.485 14.0635 32.7026C14.5585 33.5259 15.3198 34.2063 15.8755 35" stroke="#1E59CC" stroke-opacity="0.02" stroke-width="5" stroke-linecap="round"/>
<path d="M18.2951 19C18.2234 19.9173 17.996 20.7872 18.0001 21.72C18.0077 23.497 18.4509 25.3395 19.4044 26.7947C20.3796 28.2828 22.2783 29.8112 24 30" stroke="#1E59CC" stroke-opacity="0.02" stroke-width="5" stroke-linecap="round"/>
<path d="M21 19.1834C20.5979 18.881 19.3392 18.987 18.9001 19.2519C17.882 19.866 17.9908 20.8653 18.0159 21.9718C18.0584 23.8482 19.2022 25.608 20.3037 27" stroke="#1E59CC" stroke-opacity="0.03" stroke-width="5" stroke-linecap="round"/>
<path d="M24 18.005C24.9666 18.005 25.8411 17.8904 26.4444 18.7538C26.9108 19.4212 27 20.2208 27 21" stroke="#1E59CC" stroke-opacity="0.03" stroke-width="5" stroke-linecap="round"/>
<path d="M26.9068 26C26.9874 26.8534 27.3074 27.6045 26 28" stroke="#1E59CC" stroke-opacity="0.03" stroke-width="5" stroke-linecap="round"/>
<path d="M16 19C14.8166 20.3194 14.8147 22.266 15.3192 24" stroke="#1E59CC" stroke-opacity="0.03" stroke-width="5" stroke-linecap="round"/>
<path d="M19 29C19.6284 29.4074 20.3346 29.8889 21.1347 29.8889C21.773 29.8889 22.3764 29.8961 23 30" stroke="#1E59CC" stroke-opacity="0.03" stroke-width="5" stroke-linecap="round"/>
<path d="M14 14C12.448 15.164 11.1736 16.5345 10 18" stroke="#1E59CC" stroke-opacity="0.03" stroke-width="3" stroke-linecap="round"/>
<path d="M12 28C12 28.8919 12.3313 29.2705 13 30" stroke="#1E59CC" stroke-opacity="0.03" stroke-width="3" stroke-linecap="round"/>
<path d="M21 8C22.072 8 23.8385 8 25 8" stroke="#1E59CC" stroke-opacity="0.03" stroke-width="3" stroke-linecap="round"/>
<path d="M36 18C36.0735 18.1556 36.323 18.304 36.5 18.4477C36.7383 18.6412 36.7 18.8147 37 19" stroke="#1E59CC" stroke-opacity="0.03" stroke-width="3" stroke-linecap="round"/>
<path d="M35 30C35 30.3494 35 30.6384 35 31" stroke="#1E59CC" stroke-opacity="0.03" stroke-width="3" stroke-linecap="round"/>
<path d="M29 36C28.5955 36 28.1931 36 27.787 36C27.5188 36 27.2643 36 27 36" stroke="#1E59CC" stroke-opacity="0.03" stroke-width="3" stroke-linecap="round"/>
<path d="M14 12C14.4451 10.7217 15.0947 9.99419 16.3704 9.27635C17.0881 8.87248 18.1086 8 19 8" stroke="#7389B3" stroke-opacity="0.03" stroke-width="2" stroke-linecap="round"/>
<path d="M16 8C13.8687 9.05556 11.3473 9.90191 9.47398 11.4201C8.88441 11.898 8.51528 12.47 8 13" stroke="#7389B3" stroke-opacity="0.03" stroke-width="2" stroke-linecap="round"/>
<path d="M9 19C8.95038 21.0047 7.31664 23.0063 8.33174 25" stroke="#7389B3" stroke-opacity="0.03" stroke-width="2" stroke-linecap="round"/>
<path d="M11 29C11 31.8236 13.1819 32.6796 15 34" stroke="#7389B3" stroke-opacity="0.03" stroke-width="2" stroke-linecap="round"/>
<path d="M21 35C23.5433 35 25.6818 34.5969 28 34" stroke="#7389B3" stroke-opacity="0.03" stroke-width="2" stroke-linecap="round"/>
<path d="M33.7419 21C33.8069 20.2666 34.1387 19.4795 33.9343 18.7468C33.7596 18.1206 33.3999 17.5587 33 17" stroke="#7389B3" stroke-opacity="0.03" stroke-width="2" stroke-linecap="round"/>
<path d="M26 12C25.2506 11.4671 24.4079 11.4301 23.5843 11.2654C22.7057 11.0897 21.8933 11 21 11" stroke="#7389B3" stroke-opacity="0.03" stroke-width="2" stroke-linecap="round"/>
<path d="M14 15C13.5519 15.2851 13.0946 15.5785 12.72 15.96C12.4165 16.2692 12.2589 16.6764 12 17" stroke="#7389B3" stroke-opacity="0.03" stroke-width="2" stroke-linecap="round"/>
<path d="M11 24C11.105 24.9712 11.2791 26.2791 12 27" stroke="#7389B3" stroke-opacity="0.03" stroke-width="2" stroke-linecap="round"/>
<path d="M18 16C15.6788 16 14 18.7312 14 21" stroke="#EDF3FF" stroke-opacity="0.25" stroke-width="2" stroke-linecap="round"/>
<path d="M14 15.0723C13.9362 14.817 13.2845 15.3161 13.2124 15.3617C12.1984 16.0028 11.3641 16.8436 10.7498 17.8765C10.2422 18.73 9.74989 20.0197 10.1416 21" stroke="white" stroke-opacity="0.25" stroke-width="2" stroke-linecap="round"/>
<path d="M10 26C10.1166 26.8286 10.8631 27.7339 11.3275 28.4036C12.0813 29.4908 12.9012 30.2544 14 31" stroke="white" stroke-opacity="0.25" stroke-width="2" stroke-linecap="round"/>
<path d="M16 16C16.7467 14.8194 17.6287 13.5962 19.0056 12.9227C19.9748 12.4486 20.9042 12.1361 22 12" stroke="white" stroke-opacity="0.25" stroke-width="2" stroke-linecap="round"/>
<path d="M27 16C28.8243 16.5721 30.5224 17.7561 32 19" stroke="white" stroke-opacity="0.25" stroke-width="2" stroke-linecap="round"/>
<path d="M29.8919 24C29.8919 25.2106 30.2344 26.7821 29.7002 27.9394C29.3558 28.6856 28.565 29.3538 28 30" stroke="white" stroke-opacity="0.25" stroke-width="2" stroke-linecap="round"/>
<path d="M30 10C31.0163 10.1821 32.0539 10.8025 32.863 11.5494C33.3254 11.9761 33.605 12.5282 34 13" stroke="white" stroke-opacity="0.25" stroke-width="2" stroke-linecap="round"/>
<path d="M36 17C37.4596 17.7888 36.8909 19.0865 36.8909 20" stroke="white" stroke-opacity="0.25" stroke-width="2" stroke-linecap="round"/>
<path d="M17 7C16.2442 7 15.5413 7.09561 14.8088 7.37037C14.0623 7.65034 13.5743 8.29442 13 9" stroke="white" stroke-opacity="0.25" stroke-width="2" stroke-linecap="round"/>
<path d="M9 16C8.19102 16.8034 8 18.0749 8 19" stroke="white" stroke-opacity="0.25" stroke-width="2" stroke-linecap="round"/>
<path d="M8 24C8.04266 25.1518 8.23922 26.1034 9 27" stroke="white" stroke-opacity="0.25" stroke-width="2" stroke-linecap="round"/>
<path d="M10 30C10.6474 30.6451 11.0178 31.7053 12 32" stroke="white" stroke-opacity="0.25" stroke-width="2" stroke-linecap="round"/>
<path d="M14 34C14.7947 34.7417 15.8036 35 17 35" stroke="white" stroke-opacity="0.25" stroke-width="2" stroke-linecap="round"/>
<path d="M20 35C21.0138 35 21.9816 35 23 35" stroke="white" stroke-opacity="0.25" stroke-width="2" stroke-linecap="round"/>
<path d="M25 35C25.659 34.5507 26.4754 34.8497 27.1111 34.4259C27.4184 34.2211 27.6665 34.0834 28 34" stroke="white" stroke-opacity="0.25" stroke-width="2" stroke-linecap="round"/>
<path d="M31 32C31.3376 31.6668 31.7037 31.3621 32 31" stroke="white" stroke-opacity="0.25" stroke-width="2" stroke-linecap="round"/>
<path d="M33 28C33.4789 27.038 33.9211 26.0655 34 25" stroke="white" stroke-opacity="0.25" stroke-width="2" stroke-linecap="round"/>
<path d="M27 18C26.6451 18 26.2939 18 25.9333 18C25.6164 18 25.284 18 25 18" stroke="white" stroke-opacity="0.25" stroke-width="2" stroke-linecap="round"/>
<path d="M20 17C18.8983 17.1821 18.0325 17.5735 17 18" stroke="white" stroke-opacity="0.25" stroke-width="2" stroke-linecap="round"/>
<path d="M23 12.0085C22.1535 12.0085 21.304 11.9893 20.4578 12.0085C19.1109 12.0391 17.9356 12.5721 16.7831 13.1303C15.6699 13.6695 14.7299 14.119 14 15" stroke="#F52F82" stroke-opacity="0.04" stroke-width="2" stroke-linecap="round"/>
<path d="M12.651 21C12.0334 22.5158 11.8539 24.4225 12.1183 26.0058C12.352 27.4058 13.1032 28.9406 13.8591 30.1637C14.6066 31.3734 15.8192 32.2038 17 33" stroke="#F52F82" stroke-opacity="0.04" stroke-width="2" stroke-linecap="round"/>
<path d="M28 15C28.9578 15 29.5415 15.5403 30.1563 16.0556C30.5456 16.3819 30.8856 16.5643 31 17" stroke="#F52F82" stroke-opacity="0.04" stroke-width="2" stroke-linecap="round"/>
<path d="M31 26C30.8779 26.5493 30.136 27.0919 29.6508 27.4143C28.7998 27.9796 27.865 28.4504 27 29" stroke="#F52F82" stroke-opacity="0.04" stroke-width="2" stroke-linecap="round"/>
<path d="M35 20C35.7394 20 35.8576 20.3219 35.875 20.9673C35.9023 21.9807 36 22.9839 36 24" stroke="#F52F82" stroke-opacity="0.04" stroke-width="2" stroke-linecap="round"/>
<path d="M16 16C15.9485 16.6919 15.5694 17.0019 15.3111 17.5269C15.0939 17.9682 15.0301 18.4764 15 19" stroke="#F52F82" stroke-opacity="0.04" stroke-width="2" stroke-linecap="round"/>
<path d="M22 13H24" stroke="#F52F82" stroke-opacity="0.04" stroke-width="2" stroke-linecap="round"/>
<path d="M26 25.5038C24.8188 26.2261 23.1209 25.9589 21.8269 25.9186C21.3285 25.9031 21.0799 25.4469 20.7784 25.0659C20.32 24.4867 19.8844 24.0424 19.545 23.349C18.6675 21.5564 18.7886 18.3187 20.357 17" stroke="#D92973" stroke-opacity="0.03" stroke-width="3" stroke-linecap="round"/>
<path d="M16.0081 22C16.0081 23.2212 15.8752 24.2838 16.6882 25.2937C17.5633 26.3806 18.6692 26.8086 20 27" stroke="#D92973" stroke-opacity="0.03" stroke-width="3" stroke-linecap="round"/>
<path d="M22 14.2072C22.309 13.2786 26.5356 15.7585 27 16" stroke="#D92973" stroke-opacity="0.03" stroke-width="3" stroke-linecap="round"/>
<path d="M28.972 21C28.972 21.6634 29.0456 22.4199 28.954 23.0778C28.8562 23.7807 28.3692 24.4791 28 25" stroke="#D92973" stroke-opacity="0.03" stroke-width="3" stroke-linecap="round"/>
<path d="M27 29C25.8418 29 24.3367 29 23 29" stroke="#D92973" stroke-opacity="0.03" stroke-width="3" stroke-linecap="round"/>
<path d="M30 13C30.8947 13.4474 31.7726 14.1162 32 15" stroke="#D92973" stroke-opacity="0.03" stroke-width="3" stroke-linecap="round"/>
<path d="M33.8284 20C34.2625 21.4396 33.8317 23.9494 33 25" stroke="#D92973" stroke-opacity="0.03" stroke-width="3" stroke-linecap="round"/>
<path d="M24 10.1215C23.1477 9.93719 21.9228 9.98238 21.0734 10.1252C20.2754 10.2595 19.5044 10.5228 19 11" stroke="#D92973" stroke-opacity="0.03" stroke-width="3" stroke-linecap="round"/>
<path d="M9 20C9.69384 21.3521 10 22.6376 10 24" stroke="#D92973" stroke-opacity="0.03" stroke-width="3" stroke-linecap="round"/>
<path d="M16 31C16.2786 31.2234 16.6179 31.6324 16.9947 31.7071C17.3644 31.7803 17.6519 31.849 18 32" stroke="#D92973" stroke-opacity="0.03" stroke-width="3" stroke-linecap="round"/>
<path d="M24 32C24.5789 32 25.3839 32 26 32" stroke="#D92973" stroke-opacity="0.03" stroke-width="3" stroke-linecap="round"/>
<path d="M25 19C25.5619 19.825 26.6778 20.4823 26.9333 21.4762C27.0529 21.9416 26.9751 22.5189 26.9751 23" stroke="#D92973" stroke-opacity="0.03" stroke-width="3" stroke-linecap="round"/>
<path d="M26 17.093C26.5926 16.5517 28.2303 18.531 28.4444 18.9873C28.7622 19.6645 29 20.2452 29 21" stroke="#D92973" stroke-opacity="0.03" stroke-width="3" stroke-linecap="round"/>
<path d="M21 18C19.7023 18.0724 18.3937 18.4986 17.4604 19.2018C16.8634 19.6515 17.018 20.426 17.018 21" stroke="#D92973" stroke-opacity="0.03" stroke-width="3" stroke-linecap="round"/>
<path d="M17 25C17.639 25.9503 18.4165 27 20 27" stroke="#D92973" stroke-opacity="0.03" stroke-width="3" stroke-linecap="round"/>
<path d="M19 24C19.5129 26.1632 20.9096 27 23 27" stroke="#D92973" stroke-opacity="0.03" stroke-width="3" stroke-linecap="round"/>
<path d="M26 27C26.4315 26.64 26.8484 26.2915 27.2963 25.9596C27.6278 25.7139 27.7593 25.3282 28 25" stroke="#D92973" stroke-opacity="0.03" stroke-width="3" stroke-linecap="round"/>
<path d="M28 24C28 22.6442 28 21.359 28 20" stroke="#D92973" stroke-opacity="0.03" stroke-width="3" stroke-linecap="round"/>
<path d="M16.6108 23.6861C16.6305 23.4694 16.8663 23.2617 17.0137 23.1192C17.2072 22.9322 17.3338 22.6898 17.5462 22.5199C17.8009 22.3162 18.0313 22.1048 18.2589 21.872C18.4275 21.6995 18.5829 21.4965 18.761 21.3375C18.9332 21.1838 18.9798 20.9901 19.0971 20.7989C19.2024 20.6274 19.3141 20.4599 19.4008 20.2786C19.5015 20.0681 19.7045 19.9492 19.8382 19.7663C19.9006 19.6809 19.9673 19.6295 20.0528 19.5679C20.1624 19.489 20.2057 19.3772 20.2937 19.2804C20.428 19.1327 20.5638 18.9742 20.7007 18.8309C20.9912 18.5269 21.2578 18.2099 21.5024 17.8712C21.7395 17.543 22.0405 17.2058 22.3244 16.9156C22.7209 16.5103 23.0176 16.0304 23.4036 15.6158C23.68 15.3188 23.9704 15.0529 24.2641 14.7755C24.5529 14.5028 24.9151 14.2221 25.1225 13.8827C25.2082 13.7425 25.3235 13.6357 25.4019 13.4818C25.5124 13.2649 25.6155 13.0466 25.7238 12.8298C25.888 12.5016 26.0705 12.1597 26.2887 11.862C26.7654 11.212 27.1974 10.5539 27.5784 9.83941C27.6799 9.64909 27.7431 9.44471 27.8437 9.25428C27.9315 9.08798 28.0883 8.94994 28.1636 8.78051C28.2796 8.51948 28.5388 8.31664 28.7102 8.08807" stroke="#F2F2F2" stroke-width="2" stroke-linecap="round"/>
<path d="M28.8193 7.46854C29.0134 7.54615 29.2227 7.47987 29.4227 7.47056C29.6371 7.46059 29.8809 7.49474 30.0868 7.4159C30.408 7.29286 30.7424 7.3316 31.0789 7.24987C31.8504 7.06249 32.8095 6.85143 33.3951 6.26589C33.7257 5.93525 33.9996 5.60475 34.4317 5.41958C34.5719 5.35947 34.6631 5.30147 34.7314 5.17257C34.7528 5.13196 34.888 5.02679 34.9419 5.02679" stroke="#F2F2F2" stroke-width="2" stroke-linecap="round"/>
<path d="M34.5046 5.97437C34.3087 6.19212 34.1838 6.44034 34.0349 6.68502C33.889 6.92481 33.7334 7.17956 33.6138 7.43212C33.3743 7.93769 33.0833 8.33354 33.0833 8.9243C33.0833 9.55516 33.0469 10.2026 33.0469 10.8214" stroke="#F2F2F2" stroke-width="2" stroke-linecap="round"/>
<path d="M32.7551 11.3316C32.6149 11.3597 32.4991 11.5294 32.3623 11.5867C32.2792 11.6215 32.1919 11.6364 32.1072 11.6677C31.9588 11.7227 31.7174 11.9147 31.5687 11.9147C31.4203 11.9147 31.2141 12.2832 31.0787 12.3703C30.9597 12.4468 30.8528 12.5408 30.7365 12.6213C30.6702 12.6672 30.5738 12.752 30.5037 12.7813C30.313 12.8607 30.2225 13.0439 30.0664 13.1538C29.9657 13.2246 29.9105 13.3391 29.8113 13.4089C29.6795 13.5016 29.5392 13.5905 29.4043 13.6782C29.2896 13.7527 29.1199 13.7677 29.0196 13.8503C28.8777 13.9671 28.7122 14.0478 28.556 14.1459C28.3285 14.2887 28.1334 14.541 27.979 14.7573C27.7354 15.0984 27.3521 15.3891 27.0334 15.6401C26.871 15.7681 26.6954 15.9753 26.5678 16.1422C26.5026 16.2274 26.4242 16.3059 26.3693 16.3973C26.3035 16.507 26.2359 16.6586 26.1588 16.7577C25.9982 16.9642 25.734 17.1355 25.6506 17.3995C25.5724 17.6472 25.3347 17.8398 25.2112 18.0737C24.9499 18.569 24.5825 18.9414 24.1908 19.3331C23.9243 19.5996 23.7625 19.9801 23.5166 20.2806C23.2337 20.6264 23.033 21.0459 22.725 21.3658C22.3821 21.7219 22.1103 22.1048 21.8179 22.5017C21.6784 22.6909 21.4912 22.9542 21.413 23.1759C21.3819 23.2639 21.2918 23.3412 21.247 23.431C21.2106 23.5037 21.1321 23.643 21.0749 23.7003C20.8608 23.9143 20.6406 24.2469 20.5019 24.5243C20.4216 24.6848 20.2638 24.8217 20.1536 24.9616C20.0602 25.0803 19.9901 25.2248 19.8742 25.324C19.7507 25.4299 19.8273 25.555 19.5807 25.4901C19.32 25.4215 19.0621 25.3082 18.8133 25.1884C18.6791 25.1238 17.7804 24.4841 17.7402 24.5243" stroke="#F2F2F2" stroke-width="2" stroke-linecap="round"/>
<path d="M17.4126 23.7225C17.4126 24.0355 17.8932 24.1226 18.1415 24.1518C18.2174 24.1607 18.3607 24.1297 18.433 24.168C18.4825 24.1941 18.4579 24.2452 18.5059 24.2692" stroke="#F2F2F2" stroke-width="2" stroke-linecap="round"/>
<path d="M18.5059 24.0505C18.5059 23.7311 18.5428 23.5791 18.761 23.3298C19.086 22.9583 19.452 22.5853 19.83 22.2688C20.4206 21.7744 20.6957 21.0377 21.1217 20.4223C21.3748 20.0568 21.6999 19.7473 21.9599 19.3857C22.2093 19.039 22.5157 18.7138 22.8083 18.4017C23.2395 17.9417 23.5418 17.3682 23.8753 16.8346C24.271 16.2015 24.726 15.6315 25.1953 15.0489C25.7265 14.3896 26.2564 13.7203 26.807 13.0809C27.047 12.8021 27.2504 12.5005 27.4711 12.2063C27.5936 12.0429 27.7073 11.8711 27.8355 11.7122C27.9803 11.5328 28.1717 11.3923 28.3052 11.2041C28.7255 10.6118 29.1369 9.92832 29.6982 9.45475C30.1423 9.08006 30.5902 8.69657 31.0507 8.34321C31.3393 8.12168 31.6961 8.19743 32.0448 8.19743C32.0727 8.19743 32.2084 8.17852 32.2229 8.20755C32.2798 8.32118 32.0946 8.54814 32.0448 8.63678C31.6756 9.29311 31.166 9.92763 30.6781 10.4974C30.0502 11.2308 29.4036 11.9406 28.6919 12.5889C27.7233 13.4715 26.6833 14.2527 25.8027 15.2311C25.4516 15.6213 25.1278 16.0381 24.7823 16.4338C24.7633 16.4556 24.6265 16.6508 24.6325 16.6484C24.9915 16.5048 25.342 16.1327 25.6408 15.8992C26.6341 15.123 27.7297 14.4604 28.5543 13.4879C29.0181 12.9408 29.384 12.2652 29.9128 11.777C30.083 11.62 30.2741 11.4901 30.4149 11.3033C30.5433 11.1329 30.6617 10.9748 30.828 10.8376C31.322 10.43 31.8358 10.0689 32.3546 9.69163" stroke="#F2F2F2" stroke-width="2" stroke-linecap="round"/>
<path d="M11.3818 3.6994C11.3818 4.0165 11.7298 4.26036 11.8502 4.53387C11.9011 4.64975 12.0992 4.84903 12.1865 4.94258C12.252 5.01279 12.3078 5.08916 12.3781 5.15546C12.481 5.25248 12.5971 5.20987 12.7144 5.27041C12.9106 5.37167 13.2517 5.30873 13.4701 5.30873C13.6906 5.30873 13.9117 5.30393 14.1322 5.30873C14.3818 5.31415 14.6191 5.38536 14.873 5.38536C15.0607 5.38536 15.3389 5.4252 15.518 5.48115C15.7958 5.56799 15.8585 5.67379 15.9607 5.96012C16.0472 6.20227 16.1792 6.40596 16.2673 6.63493C16.3941 6.96456 16.5189 7.31807 16.5951 7.66098C16.6081 7.7193 16.6933 7.77896 16.7164 7.84618C16.7581 7.96695 16.7759 8.0923 16.8229 8.21232C16.9124 8.44104 17.0165 8.71502 17.1592 8.91055C17.5056 9.38515 17.9084 9.83284 18.2108 10.3368C18.3513 10.571 18.5872 10.7325 18.7217 10.9648C18.8648 11.2119 19.0503 11.4188 19.19 11.6694C19.3267 11.9144 19.524 12.1711 19.6967 12.3932C19.846 12.5851 19.9147 12.7937 20.0202 13.0105C20.1354 13.2469 20.2769 13.7111 20.5205 13.8194C20.6403 13.8727 20.7008 14.0972 20.81 14.1792C20.982 14.3082 21.2578 14.6366 21.0612 14.8114C20.9107 14.9452 20.7257 15.1278 20.5993 15.2904C20.5307 15.3785 20.412 15.3509 20.3396 15.4628C20.2846 15.5478 20.1595 15.6189 20.1182 15.7119C20.0662 15.8288 19.9744 16.0553 19.8883 15.9524C19.7541 15.7921 19.6031 15.4911 19.437 15.3649C19.1658 15.1587 18.9849 14.8361 18.7558 14.5815C18.5367 14.3381 18.3183 14.0551 18.1257 13.7854C18.0316 13.6537 17.9061 13.5914 17.8 13.4852C17.6857 13.371 17.5339 13.353 17.4147 13.2404C17.3708 13.199 17.3575 13.2105 17.2997 13.2C17.2156 13.1847 17.2086 13.0962 17.1294 13.068C17.0131 13.0264 16.8135 12.9422 16.7441 12.8381C16.6259 12.6607 16.38 12.5503 16.2864 12.3399C16.2534 12.2656 16.1817 12.3021 16.1247 12.2654C15.9934 12.1811 15.8944 12.0864 15.75 12.0142C15.3403 11.8094 14.9332 11.6059 14.5239 11.4012C14.306 11.2922 14.1045 11.1422 13.8725 11.0648C13.704 11.0087 13.534 10.9619 13.3828 10.8647C13.2246 10.763 13.0529 10.6332 12.8741 10.5773C12.4508 10.4451 11.994 10.3193 11.6117 10.1069C11.4681 10.0271 11.6678 9.65053 11.7097 9.55556C11.8937 9.13848 12.0564 8.66017 12.0715 8.19955C12.0989 7.36881 12.2207 6.53218 12.1184 5.70041C12.1025 5.57106 12.1099 5.43884 12.1099 5.30873C12.1099 5.22439 12.1579 5.58224 12.1929 5.65571C12.3333 5.95057 12.5757 6.20674 12.7698 6.46676C13.152 6.97891 13.6311 7.39515 14.0257 7.89301C14.6708 8.70674 15.2712 9.6091 15.7926 10.5071C15.9428 10.7658 16.096 11.014 16.2992 11.2351C16.3037 11.24 16.576 11.5195 16.576 11.4672C16.576 11.2739 16.385 11.0226 16.2928 10.869C16.0621 10.4845 15.8082 10.1164 15.5393 9.75779C15.1084 9.18329 14.7034 8.59083 14.2727 8.01648C14.0117 7.66849 13.7736 7.34037 13.634 6.92657C13.5726 6.74433 13.5276 6.58169 13.5276 6.388C13.5276 6.22318 14.0927 6.59314 14.1577 6.63067C15.0192 7.12817 15.2937 8.11206 15.7287 8.95738C15.9851 9.45555 16.2445 9.95159 16.4929 10.4539C16.5223 10.5132 16.9165 11.2166 16.7931 11.1968C16.6923 11.1807 16.5895 11.094 16.5036 11.0478C16.1846 10.8764 15.846 10.746 15.5286 10.571C14.857 10.2006 14.2543 9.72247 13.6596 9.24263C13.608 9.20099 13.1877 8.79237 13.1253 8.80624C12.9214 8.85155 13.5348 9.63778 13.5893 9.68754C13.9717 10.0367 14.4486 10.2722 14.8517 10.5965C15.2581 10.9235 15.6062 11.3193 16.0012 11.6609C16.1659 11.8034 16.3693 11.9946 16.4397 12.2058" stroke="#F2F2F2" stroke-width="2" stroke-linecap="round"/>
<path d="M15.7881 5.11713C15.9208 5.11713 16.0829 5.08183 16.1329 5.23209" stroke="#F2F2F2" stroke-width="2" stroke-linecap="round"/>
<path d="M18.8151 14.0833C18.7544 13.415 18.1449 12.7766 17.7124 12.3207C17.4149 12.0072 17.1095 11.7199 16.7587 11.4671C16.6456 11.3855 16.4719 11.1969 16.3202 11.1882C16.2352 11.1834 16.4096 11.4027 16.4118 11.4054C16.6137 11.6548 16.9054 11.8549 17.1547 12.0525C17.5985 12.4044 18.0605 12.7312 18.5405 13.0317C18.7555 13.1664 18.9576 13.2818 19.094 13.5001C19.4433 14.059 18.1998 12.5313 17.7422 12.0568C17.4465 11.7501 17.1396 11.4575 16.878 11.1201C16.7073 10.9 16.7839 11.0643 16.878 11.2095C17.4296 12.061 18.0689 12.839 18.7853 13.5554C18.978 13.7481 19.1663 13.9442 19.3941 14.0961C19.4456 14.1304 19.523 14.16 19.4282 14.16" stroke="#F2F2F2" stroke-width="2" stroke-linecap="round"/>
<path d="M28.8194 26.4552C28.8588 26.3108 29.0935 26.11 29.2043 26.0165C29.3271 25.9128 29.4859 25.7849 29.5866 25.6599C29.8175 25.3731 30.0346 25.0837 30.2973 24.8286C30.409 24.7201 30.4793 24.6069 30.5744 24.4874C30.651 24.391 30.7846 24.3062 30.8463 24.2051C30.8816 24.1475 31.0315 24.0485 31.0362 23.9896C31.046 23.8669 30.6526 23.7697 30.5641 23.7074C30.3315 23.5437 30.1856 23.2952 29.9791 23.107C29.7234 22.874 29.4297 22.6747 29.1889 22.4271C29.0422 22.2764 28.9092 22.1085 28.745 21.9756C28.6559 21.9034 28.5451 21.8567 28.45 21.7909C28.3526 21.7234 28.2728 21.6362 28.178 21.5651C27.8913 21.3501 27.7101 20.9817 27.4571 20.7287C27.3516 20.6232 27.2904 20.4913 27.1902 20.3823C27.1391 20.3266 27.0819 20.2565 27.0594 20.1848C27.0372 20.1141 26.9735 20.0894 26.9375 20.0334C26.9272 20.0172 26.8883 19.92 26.8644 19.9243C26.7887 19.9381 26.6998 20.0822 26.6515 20.1386C26.5605 20.2447 26.4767 20.3373 26.3603 20.4169C26.1353 20.5709 25.9603 20.7682 25.7714 20.957C25.659 21.0695 25.6416 21.2665 25.6573 21.4227C25.6732 21.5824 25.7389 21.6856 25.8048 21.8268C25.9606 22.1607 26.2163 22.4176 26.418 22.7273C26.5962 23.0011 26.7828 23.2674 26.9722 23.5342C27.1154 23.736 27.2604 23.9388 27.3993 24.1436C27.5679 24.392 27.7713 24.6524 27.9984 24.8478C28.0499 24.8921 28.4277 25.2439 28.45 25.0877C28.5316 24.5161 28.2563 24.0427 27.9676 23.5637C27.8045 23.293 27.631 23.0289 27.4468 22.7722C27.2543 22.5039 27.0913 22.2152 26.8529 21.9833C26.8519 21.9823 26.7588 21.8754 26.8195 21.9538C26.922 22.0861 27.0315 22.2077 27.1518 22.3245C27.512 22.6743 27.9124 22.9787 28.2742 23.3264C28.6824 23.7187 28.9836 24.1402 29.212 24.6541" stroke="#F2F2F2" stroke-width="2" stroke-linecap="round"/>
<path d="M12.498 24.7798C12.8797 24.3982 13.4234 24.2439 13.802 23.8653C13.8649 23.8024 13.9275 23.7927 13.9467 23.7063C13.9828 23.5435 14.0632 24.0197 14.1378 24.169C14.2935 24.4805 14.5327 24.7667 14.7504 25.0388C14.9949 25.3444 15.3584 25.5239 15.6471 25.7765C15.9146 26.0106 16.1612 26.2891 16.4706 26.4696C16.8345 26.6819 17.287 26.7528 17.6084 27.034C17.8887 27.2793 18.2208 27.5078 18.5747 27.6413C18.9181 27.7709 19.1989 28.0219 19.5321 28.1629C19.5974 28.1906 19.6194 28.3543 19.6428 28.413C19.6899 28.5306 19.6779 28.6601 19.5857 28.7524C19.415 28.923 19.225 29.1488 19.0248 29.2739C18.9676 29.3097 18.9213 29.3717 18.8712 29.4168C18.8394 29.4454 18.8245 29.4345 18.7837 29.4436C18.7282 29.4559 18.5381 29.9915 18.5 30C18.327 30.0384 18.194 29.1501 18.0763 29.056C17.794 28.8302 17.5131 28.6228 17.2422 28.3844C16.7787 27.9765 16.4327 27.4428 15.9954 27.0055C15.6038 26.6138 15.0957 26.3182 14.6522 25.9855C14.3888 25.788 14.125 25.5701 13.9163 25.3139C13.8371 25.2167 13.734 25.1433 13.6555 25.0478C13.5767 24.9519 13.545 24.8578 13.4304 24.812" stroke="#E9E9E9" stroke-width="2" stroke-linecap="round"/>
<path d="M28.2505 29.2873C28.4639 28.9316 28.9251 28.7194 29.2702 28.5212C29.5292 28.3724 29.8061 28.2651 30.0484 28.0869C30.3585 27.8589 30.6531 27.6373 30.9265 27.364C31.0785 27.2119 31.2348 27.0646 31.3877 26.9135C31.5575 26.7457 31.7599 26.6041 31.903 26.4117C32.1084 26.1355 32.3179 25.8577 32.5423 25.5971C32.7175 25.3936 32.8947 25.1552 33.1196 25.0023C33.2895 24.8867 33.4407 24.7203 33.5673 24.5585C33.6625 24.437 33.7028 24.2945 33.798 24.1782C33.8272 24.1425 33.9139 23.9564 33.945 23.9475C33.9996 23.9319 33.9943 23.8724 34.0408 23.8517C34.1027 23.8242 34.0647 23.8238 34.1069 23.7816C34.1578 23.7307 34.4124 23.8292 34.4548 23.8639C34.5497 23.9415 34.6876 24.0215 34.7651 24.1161C34.8382 24.2055 34.9385 24.2761 35.0227 24.3602C35.0958 24.4333 35.0726 24.5274 35.0726 24.6259C35.0726 24.6745 35.0726 24.7231 35.0726 24.7716C35.0726 24.8292 35.1001 24.8076 35.1333 24.8444C35.184 24.9008 35.2459 24.9794 35.3046 25.0198C35.4517 25.1209 35.1916 25.2716 35.1157 25.3408C34.8299 25.6016 34.5958 25.9013 34.2984 26.1541C33.9488 26.4513 33.6239 26.7507 33.3003 27.078C33.0762 27.3046 32.918 27.5817 32.692 27.8077C32.4937 28.006 32.2954 28.21 32.1107 28.4187C31.8996 28.6571 31.6665 28.8053 31.3823 28.9474C31.15 29.0636 30.9167 29.1769 30.7026 29.3224C30.5512 29.4252 30.4157 29.5446 30.2669 29.6488C30.1507 29.7301 30.0472 29.8335 29.9257 29.9077C29.8572 29.9495 29.7581 30.1039 29.6829 30.1127C29.5899 30.1237 29.7284 30.0815 29.7611 30.0696C29.9167 30.013 30.0792 29.9473 30.2264 29.8713C30.472 29.7446 30.6675 29.543 30.9076 29.4141C31.0105 29.3588 31.0904 29.297 31.1827 29.2253C31.2141 29.2009 31.3653 29.08 31.238 29.1592C31.0093 29.3013 30.7618 29.3979 30.5474 29.5638C30.4152 29.6661 30.2684 29.7328 30.1253 29.816C29.994 29.8923 29.845 29.87 29.6977 29.87C29.6423 29.87 29.5689 29.8825 29.5156 29.8673C29.4604 29.8515 29.4919 29.7729 29.4158 29.7729" stroke="#E9E9E9" stroke-width="2" stroke-linecap="round"/>
<path d="M8.21987 36.9955C9.13489 36.2786 10.1576 35.6606 10.9982 34.8536C11.345 34.5207 11.5321 34.0606 11.8328 33.6916C12.1898 33.2534 12.4989 32.7159 12.9262 32.342C13.2787 32.0335 13.5427 31.6595 13.8294 31.2909C14.0424 31.017 14.2873 30.7736 14.4949 30.4933C14.5904 30.3645 15.0093 30.122 15.0179 29.9598C15.0303 29.7239 14.3299 29.5184 14.1622 29.3418C14.0106 29.1823 13.8399 28.9814 13.7343 28.7925C13.6191 28.5863 13.5442 28.5178 13.5442 28.2722C13.5442 28.198 13.598 27.8238 13.428 27.921C13.3225 27.9812 13.8766 28.3551 13.9245 28.3911C14.1421 28.5543 14.3383 28.7326 14.5398 28.914C14.8229 29.1688 15.0925 29.4447 15.3955 29.672C15.488 29.7413 15.7333 29.8872 15.7785 29.9889C15.8122 30.0647 15.9418 30.1349 15.9 30.2186C15.8158 30.3869 15.609 30.4987 15.4404 30.5567C14.8992 30.7427 14.3274 30.9388 13.8532 31.2671C13.6139 31.4328 13.4514 31.6771 13.214 31.8402C12.6865 32.203 12.5282 32.831 12.3082 33.3932C12.1307 33.8468 11.9615 34.2489 11.7007 34.6661C11.4981 34.9904 11.253 35.2836 11.0246 35.5905C10.8189 35.867 10.6515 36.1686 10.433 36.4356C10.0797 36.8675 9.69836 37.2578 9.48228 37.7825C9.43367 37.9006 9.38534 38.0135 9.35023 38.1364C9.27909 38.3854 9.26319 38.134 9.21554 38.0387C9.07027 37.7482 8.93516 37.4119 8.67149 37.2068C8.50338 37.076 8.29656 36.9824 8.14593 36.8318C8.06851 36.7543 7.64941 36.701 7.64941 36.5782C7.64941 36.3763 8.1112 36.1839 8.24628 36.0896C8.61552 35.832 8.94931 35.5586 9.26043 35.2313C9.84472 34.6166 10.4322 33.9331 10.956 33.2664C11.5264 32.5404 11.8743 31.7071 12.2342 30.8736C12.2692 30.7925 12.3478 30.7437 12.3821 30.6623C12.4262 30.558 12.4254 30.4437 12.4772 30.3401C12.5588 30.177 12.5905 30.0108 12.6779 29.8542C12.7999 29.6356 12.7042 29.342 12.8311 29.1517" stroke="#B3B3B3" stroke-width="2" stroke-linecap="round"/>
<path d="M12.2129 33.5252C12.5101 33.5014 12.6208 33.1437 12.8045 32.9547C13.0228 32.7302 13.2635 32.5412 13.4964 32.3341C13.8287 32.0388 14.1355 31.7511 14.4947 31.4916C14.8873 31.2081 15.2788 30.9478 15.6594 30.6518C15.8379 30.5129 16.0511 30.3463 16.2536 30.2451" stroke="#B3B3B3" stroke-width="2" stroke-linecap="round"/>
<path d="M32.7535 30.6957C32.7535 30.6957 32.9579 30.5247 33.0001 30.5C33.2872 30.3314 33.3688 29.9061 33.6682 29.7633C34.0474 29.5824 34.4123 29.4092 34.7721 29.1917C34.879 29.127 34.985 29.02 35.0436 28.9095C35.0687 28.862 35.0984 28.833 35.1007 28.7737C35.1012 28.7605 35.0923 28.6469 35.115 28.6523C35.201 28.6725 35.2901 29.0467 35.3329 29.1274C35.4297 29.3098 35.5287 29.5016 35.5901 29.699C35.6946 30.0348 35.7691 30.3587 35.8545 30.6957C36.0064 31.2948 36.3811 31.7392 36.8048 32.1747C37.0874 32.4652 37.3852 32.8519 37.5442 33.2285C37.6614 33.5059 37.92 33.6727 38.098 33.9037C38.2043 34.0417 38.3688 34.1027 38.4838 34.2324C38.615 34.3803 38.7714 34.4985 38.9125 34.636C39.2128 34.9289 40.7561 35.8738 39.7305 36.2401C39.3973 36.3591 39.0408 36.6105 38.9339 36.9581C38.9281 36.9769 38.9314 37.1143 38.8946 37.0796C38.7962 36.9866 38.6953 36.8417 38.6124 36.733C38.5296 36.6245 38.4363 36.5631 38.3659 36.4437C38.278 36.2947 38.1833 36.1471 38.0908 36.0007C37.8827 35.6712 37.7197 35.3075 37.5192 34.9719C37.2979 34.6013 37.105 34.2031 36.8619 33.8465C36.622 33.4946 36.403 33.0606 36.0903 32.7677C35.7606 32.459 35.4121 32.1135 35.1329 31.7567C34.9081 31.4695 34.6666 31.1847 34.4327 30.9029C34.3044 30.7483 34.0606 30.4791 33.8647 30.6493C33.8298 30.6795 33.6748 30.7118 33.6932 30.7671C33.7416 30.9123 33.9032 30.9544 34.0076 31.0494C34.2744 31.2924 34.5407 31.5209 34.7899 31.7817C34.9704 31.9706 35.1027 32.1981 35.3115 32.3604C35.5134 32.5174 35.7198 32.7165 35.8724 32.9213C35.9712 33.054 36.0097 33.2239 36.1117 33.3571C36.2021 33.4752 36.2847 33.5951 36.3689 33.7179C36.5078 33.9207 36.6952 34.1228 36.8691 34.2967" stroke="#B3B3B3" stroke-width="2" stroke-linecap="round"/>
<path d="M6 37.1571C6.61405 36.2974 7.42901 35.5922 8.07278 34.7482C8.92718 33.6279 9.76992 32.6102 10.4817 31.3869C11.0793 30.3598 11.6843 29.3454 12.1374 28.2435C12.4168 27.5641 12.5057 26.8347 12.8346 26.1769" stroke="#434343" stroke-linecap="round"/>
<path d="M12.8344 26.1769C13.5118 26.3705 13.77 26.7521 14.1789 27.2974C14.704 27.9975 15.2517 28.6386 15.9467 29.1772C16.4032 29.531 17.4104 29.8774 17.7394 30.3474C17.8222 30.4657 15.32 32.2044 15.0753 32.3642C13.8801 33.1443 13.0503 34.0883 12.2742 35.2523C11.4142 36.5424 10.7472 37.9321 9.83418 39.1738C9.73834 39.3042 9.64819 39.7567 9.38601 39.5722C9.0165 39.3122 8.81007 38.5577 8.51457 38.1903C7.95614 37.4961 7.38835 37.4932 6.56006 37.4932" stroke="#434343" stroke-linecap="round"/>
<path d="M13.2826 26.5131C12.8983 26.1673 12.4793 25.9012 12.1372 25.5047C11.7652 25.0735 11.6442 24.7552 11.4027 24.2723C11.2733 24.0134 12.3622 23.6632 12.5854 23.5502C13.0355 23.3222 13.7758 22.5781 13.8365 22.0314C13.8757 21.6789 13.9804 21.4853 14.1789 21.9318C14.4381 22.5151 14.9408 22.9534 15.2931 23.4817C15.7893 24.2261 16.3368 24.7297 17.092 25.2122C17.6028 25.5385 18.2162 25.7141 18.6357 26.177C19.1308 26.7233 19.754 27.3148 20.3661 27.7456C20.6456 27.9422 20.8803 28.1937 21.2375 28.1937C21.3037 28.1937 21.6927 28.2777 21.7231 28.3182C21.7667 28.3764 20.9436 28.9435 20.9014 28.978C20.4151 29.3759 20.0623 29.8492 19.6627 30.3288C18.9875 31.139 18.8743 31.6567 17.9883 30.7707" stroke="#434343" stroke-linecap="round"/>
<path d="M15.9717 23.7121C15.9717 23.1152 16.1866 23.0167 16.4883 22.5294C16.7549 22.0988 17.1643 21.7065 17.478 21.3031C17.8299 20.8508 18.1003 20.2876 18.5237 19.9026C19.2999 19.197 19.9553 18.2353 20.5654 17.3879C21.1135 16.6266 21.8112 15.9817 22.383 15.2467C23.5096 13.7981 24.589 12.3547 25.6073 10.8272C26.3296 9.74383 27.1088 8.63964 27.5618 7.40994C27.8475 6.63455 28.6334 6.82099 29.3296 6.54472C30.8033 5.95991 32.2482 5.30213 33.7428 4.77072C34.923 4.3511 36.0181 3.47616 36.8115 2.51121C37.0942 2.1674 37.4513 1.91711 37.7078 1.55263C38.0579 1.05516 37.606 1.90152 37.5335 2.03192C36.957 3.06971 36.2037 4.02396 35.7533 5.13797C35.4359 5.9231 35.1806 6.73609 34.857 7.52198C34.2392 9.02233 33.8984 10.6374 33.8984 12.2838" stroke="#434343" stroke-linecap="round"/>
<path d="M20.2295 26.7372C20.3097 25.9349 21.1501 25.0886 21.574 24.4527C22.27 23.4088 23.1486 22.3615 24.0389 21.4712C24.7908 20.7193 25.4057 19.8669 26.0557 19.0312C26.5846 18.3511 27.0391 17.6245 27.6492 17.0144C28.1897 16.4739 28.617 15.719 29.2675 15.3026C30.047 14.8038 30.7023 14.149 31.4835 13.6282C32.1993 13.151 32.9448 12.5366 33.6745 12.1717" stroke="#434343" stroke-linecap="round"/>
<path d="M28.6665 27.2126C28.431 26.6773 26.9418 25.0375 26.5286 24.6333C25.9302 24.0479 25.4492 23.3658 24.8791 22.7535C24.1412 21.9609 24.8851 22.513 24.1665 21.7126M20.1665 17.7126C19.4821 16.9598 19.0098 16.4913 18.2873 15.782C17.5491 15.0572 16.7806 14.3826 16.0216 13.6843C15.1423 12.8754 13.6988 12.3609 12.6043 11.8978C12.0863 11.6787 11.6503 11.3631 11.1042 11.2194C10.9336 11.1745 10.3901 11.1802 10.3697 10.9144C10.3207 10.2775 10.5729 9.56159 10.8116 8.98475C11.1068 8.2713 11.0419 7.43674 11.0419 6.68166C11.0419 5.92957 11.1944 5.00839 10.8676 4.31633C10.5314 3.6043 10.1348 2.99989 9.72232 2.33692C9.45202 1.90252 8.4719 0.75106 8.88823 1.04844C9.66432 1.60279 10.2966 2.33138 11.1042 2.84734C12.1226 3.49798 13.4258 4.32878 14.6771 4.32878C15.3366 4.32878 15.9751 4.44082 16.644 4.44082C16.7545 4.44082 17.234 4.37576 17.2914 4.49062C17.4828 4.87352 17.3163 5.64226 17.3163 6.07166C17.3163 7.70724 18.8762 8.85736 19.6692 10.155C20.7402 11.9077 21.3974 13.0973 22.6665 14.7126M26.6665 18.2126C27.3815 18.9016 28.9772 20.6009 29.7467 21.2347C30.3634 21.7426 31.6629 23.0971 32.1665 23.7126" stroke="#434343" stroke-linecap="round"/>
<path d="M27.176 29.0901C27.3894 29.0427 27.5853 28.6808 27.7362 28.5299C28.0643 28.2018 28.4356 27.9192 28.8006 27.6335C29.4527 27.1232 29.9766 26.4712 30.6244 25.9529C31.6883 25.1018 32.4547 24.023 33.3819 23.0958C33.4902 22.9875 33.4106 22.809 33.5624 22.7286C33.788 22.6091 33.794 22.6762 33.9234 22.4174C34.1968 21.8706 34.6015 22.5624 34.7949 22.7659C35.3819 23.3839 36.0343 24.0089 36.6436 24.4964C37.1139 24.8726 36.659 25.1045 36.3884 25.6168C35.9389 26.4675 35.3682 26.9414 34.6953 27.5837C33.7335 28.5018 32.5977 29.1584 31.6577 30.0985C31.3402 30.4159 30.8957 31.1343 30.4812 31.3185C30.0796 31.497 29.9604 31.9577 29.5911 31.3869C29.1808 30.7528 28.7835 30.6307 28.1844 30.1856C27.8666 29.9496 27.2343 29.5429 27.064 29.2021" stroke="#434343" stroke-linecap="round"/>
<path d="M31.0767 30.5269C31.3557 30.7781 31.6995 30.7708 32.0219 30.932C32.3369 31.0895 32.6723 31.2761 32.8997 31.536C33.3419 32.0413 33.8867 32.4217 34.3551 32.8901C34.7457 33.2807 35.1972 33.6704 35.5029 34.143C35.6544 34.377 35.8645 34.6911 36.0768 34.8857C36.29 35.0811 36.3886 35.498 36.6132 35.6434C36.7803 35.7515 37.0721 36.1346 37.1384 36.3336C37.2364 36.6275 37.5186 36.9215 37.6635 37.2113C37.8025 37.4892 38.0082 37.7107 38.1324 37.9841C38.1917 38.1144 38.3334 38.1542 38.3687 38.2954C38.4162 38.4851 38.5044 38.5999 38.6388 38.7343C38.7079 38.8033 38.8337 39.2675 38.9614 38.8843C39.0074 38.7464 38.9406 38.6411 39.0439 38.5317C39.1733 38.3947 39.1933 38.2357 39.2465 38.0628C39.2798 37.9547 39.513 37.5783 39.5841 37.5339C39.6756 37.4768 39.6543 37.3916 39.7566 37.3314C39.8441 37.2799 40.0047 37.1938 40.0605 37.1101C40.1253 37.0128 40.5213 36.8623 40.6306 36.8137C40.72 36.774 40.8362 36.7387 40.9345 36.7387C41.0964 36.7387 41.2066 36.6115 41.3396 36.6037C41.4484 36.5973 41.744 36.6353 41.7972 36.5061C41.8466 36.3862 41.2338 35.9831 41.1108 35.9285C40.9009 35.8352 40.7018 35.5904 40.5594 35.4221C40.3741 35.2031 40.2114 34.7412 39.9892 34.5931C39.5287 34.2861 39.3058 33.5649 38.9052 33.1977C38.5557 32.8774 38.0304 32.2038 37.8811 31.7423C37.7875 31.453 37.4242 31.0528 37.2209 30.827C37.0139 30.5969 36.9428 30.2827 36.7783 30.0243C36.5954 29.7368 36.5004 29.4661 36.4032 29.1503C36.3168 28.8694 36.1073 28.5936 36.0206 28.2988C35.9665 28.1149 35.7355 27.8106 35.7355 27.6573C35.7355 27.5114 35.5699 27.1879 35.4654 27.0834" stroke="#434343" stroke-linecap="round"/>
<path d="M1.81592 17.2936H10.7981" stroke="#434343" stroke-linecap="round"/>
<path d="M37.4409 17.7739H46.4231" stroke="#434343" stroke-linecap="round"/>
<path d="M1.65967 20.9646H11.1886" stroke="#434343" stroke-linecap="round"/>
<path d="M37.2847 21.4448H46.8136" stroke="#434343" stroke-linecap="round"/>
<path d="M9.09424 15.5198C9.25688 15.5378 9.39418 15.8281 9.52832 15.9225C9.73648 16.069 9.94552 16.214 10.1297 16.3932C10.3452 16.6026 10.756 17.026 11.0711 17.026" stroke="#434343" stroke-linecap="round"/>
<path d="M44.7192 16C44.8819 16.0181 45.0192 16.3083 45.1533 16.4027C45.3615 16.5492 45.5705 16.6943 45.7547 16.8734C45.9702 17.0829 46.381 17.5062 46.6961 17.5062" stroke="#434343" stroke-linecap="round"/>
<path d="M11.1184 17.2142C11.0751 17.4198 10.7631 17.578 10.6006 17.6954C10.3246 17.8948 10.0273 18.0603 9.76386 18.2759C9.54468 18.4552 9.40473 18.7117 9.28271 18.9558" stroke="#434343" stroke-linecap="round"/>
<path d="M46.7434 17.6945C46.7001 17.9 46.3881 18.0583 46.2256 18.1756C45.9496 18.375 45.6523 18.5406 45.3889 18.7561C45.1697 18.9355 45.0297 19.192 44.9077 19.436" stroke="#434343" stroke-linecap="round"/>
<path d="M1.42236 20.7915C1.64591 20.7468 1.8607 20.5035 2.05779 20.394C2.25879 20.2824 2.4437 20.1691 2.62523 20.0279C2.82894 19.8695 3.0393 19.5829 3.25804 19.4736" stroke="#434343" stroke-linecap="round"/>
<path d="M37.0474 21.2717C37.2709 21.227 37.4857 20.9837 37.6828 20.8743C37.8838 20.7626 38.0687 20.6494 38.2502 20.5082C38.4539 20.3497 38.6643 20.0632 38.883 19.9538" stroke="#434343" stroke-linecap="round"/>
<path d="M1.375 21.0739C1.38754 21.1742 1.57107 21.2874 1.65741 21.3353C1.79452 21.4115 1.85915 21.5418 1.98951 21.6151C2.24609 21.7595 2.48018 21.952 2.78706 21.9682C3.00534 21.9796 3.21628 22.1246 3.39634 22.2297C3.51296 22.2977 3.59636 22.4859 3.72843 22.4859" stroke="#434343" stroke-linecap="round"/>
<path d="M37 21.5541C37.0125 21.6544 37.1961 21.7676 37.2824 21.8156C37.4195 21.8917 37.4841 22.022 37.6145 22.0954C37.8711 22.2397 38.1052 22.4322 38.4121 22.4484C38.6303 22.4599 38.8413 22.6048 39.0213 22.7099C39.138 22.7779 39.2214 22.9661 39.3534 22.9661" stroke="#434343" stroke-linecap="round"/>
</svg>
