<svg width="135" height="236" viewBox="0 0 135 236" fill="none" xmlns="http://www.w3.org/2000/svg">
<path d="M14.0835 233.763C18.135 233.763 19.4152 229.028 21.0723 226.045C27.0005 215.374 32.7793 204.426 37.4081 193.116C41.4741 183.182 46.5562 172.197 44.5256 161.173C43.7966 157.216 41.8552 155.018 40.3237 151.955" stroke="black" stroke-width="3" stroke-linecap="round"/>
<path d="M40.3237 151.955C45.7625 152.227 50.4881 155.353 54.9874 158.129C62.9087 163.017 72.0671 167.785 78.3978 174.765C82.6068 179.406 85.3915 187.998 87.2303 193.974C88.4476 197.93 90.0121 203.015 90.446 207.137C91.2522 214.796 90.4889 222.953 90.4889 230.676" stroke="black" stroke-width="3" stroke-linecap="round"/>
<path d="M38.0083 149.64C39.3458 148.005 39.4357 145.987 39.509 143.937C39.713 138.226 40.1422 132.754 40.9239 127.087C43.0371 111.766 43.4107 95.5545 43.4107 80.0946C43.4107 71.6337 43.4107 63.1728 43.4107 54.7119" stroke="black" stroke-width="3" stroke-linecap="round"/>
<path d="M43.4107 54.7119C43.1448 56.0411 41.9107 57.0497 40.9239 57.8847C36.2699 61.8227 30.764 64.9845 25.6171 68.2179C20.6577 71.3334 15.9215 75.0966 10.8248 77.9507C8.35783 79.3322 5.75874 80.0367 3.45008 81.7238C0.564147 83.8328 2.77762 93.492 3.36432 96.216C4.49354 101.459 6.07269 106.512 7.56619 111.651C8.24428 113.985 8.21001 116.905 9.45274 118.769" stroke="black" stroke-width="3" stroke-linecap="round"/>
<path d="M45.7261 54.7119C45.7261 60.3777 46.8992 65.2377 48.4701 70.7047C50.4071 77.4454 52.2286 84.2635 54.9873 90.7278C55.5526 92.0525 57.2916 97.943 58.9748 98.5742C60.4898 99.1423 63.0015 98.7028 64.5487 98.7028C71.9706 98.7028 79.3319 98.4031 86.7157 97.588C102.117 95.8879 117.4 93.3004 132.936 93.3004" stroke="black" stroke-width="3" stroke-linecap="round"/>
<path d="M45.7259 54.7119C37.0639 54.7119 28.6703 52.3464 21.0721 48.1089C10.7237 42.3377 10.593 31.503 11.0391 20.7968C11.3894 12.3892 15.5169 7.2894 23.5161 4.71824C29.6221 2.75558 36.7522 2.43129 43.1105 2.2743C51.544 2.06606 60.389 1.61121 68.7933 2.40293C77.9197 3.26266 87.2249 11.1327 89.331 20.025C91.3748 28.6545 90.2093 42.6944 83.8857 49.5239C74.6883 59.4571 59.4025 57.0272 47.2695 57.0272" stroke="black" stroke-width="3" stroke-linecap="round"/>
</svg>
