<svg width="132" height="269" viewBox="0 0 132 269" fill="none" xmlns="http://www.w3.org/2000/svg">
<path d="M61.6291 266.763C61.6291 255.191 51.5696 245.294 46.6757 235.288C45.0543 231.973 44.4776 225.867 41.6109 223.41C40.0246 222.05 45.5143 217.166 46.314 216.355C58.9879 203.503 70.4323 188.629 80.9239 173.907C83.9392 169.676 86.6995 165.447 89.3653 161.004C90.6612 158.844 93.1037 157.614 93.1037 154.974" stroke="black" stroke-width="3" stroke-linecap="round"/>
<path d="M93.1035 154.974C93.1035 161.89 93.5341 168.95 92.8623 175.836C91.9413 185.277 89.1539 194.773 88.7622 204.176C88.2976 215.324 98.6647 228.02 104.801 236.856C106.609 239.459 108.601 242.877 110.228 245.539C111.647 247.862 114.364 248.93 116.74 250.483C120.01 252.621 126.88 257.299 130.005 258.08" stroke="black" stroke-width="3" stroke-linecap="round"/>
<path d="M90.9329 149.547C90.9329 129.614 81.9638 112.753 79.2355 93.3515C78.7051 89.5794 76.9279 86.7165 76.8237 82.86C76.7661 80.7292 76.3195 69.1403 74.0501 74.298C70.5217 82.3169 66.5609 90.1265 62.7144 97.9943C60.6855 102.144 58.0615 106.142 56.4436 110.476C55.0551 114.195 55.1097 118.653 52.9465 122.052C50.4514 125.973 40.6483 127.189 36.7871 128.926C25.5541 133.981 14.0382 136.677 1.93604 138.694" stroke="black" stroke-width="3" stroke-linecap="round"/>
<path d="M68.1411 71.4038C75.7636 71.4038 80.0909 74.7529 86.8329 77.9157C93.4034 80.9982 99.3267 85.2065 105.886 88.2867C111.983 91.1495 118.944 92.2033 124.88 95.281C132.424 99.193 128.335 110.146 126.146 116.505C123.314 124.731 120.237 135.288 120.237 144.121" stroke="black" stroke-width="3" stroke-linecap="round"/>
<path d="M65.9704 70.3184C53.8084 70.3184 41.9787 75.2886 34.7371 62.9623C27.9426 51.3972 27.0693 39.6438 28.0442 26.4832C28.7325 17.1912 41.8553 7.11488 49.9316 4.35461C64.5887 -0.654774 77.7707 2.82137 90.8726 10.143C98.2875 14.2866 105.042 23.1017 105.042 31.7893C105.042 37.8689 106.186 43.9419 102.811 49.2148C100.305 53.1308 97.8487 57.4715 95.0331 61.1535C91.456 65.8311 82.8923 69.3574 77.3663 70.3184C71.4693 71.344 63.4036 70.2208 58.3731 73.5744" stroke="black" stroke-width="3" stroke-linecap="round"/>
<path d="M90.7405 146.226C90.7405 149.4 90.6552 153.901 93.3764 155.715" stroke="black" stroke-width="3" stroke-linecap="round"/>
</svg>
